/* XPM */
static char *result[] = {
/* columns rows colors chars-per-pixel */
"64 64 133 2 ",
"   c #0F2606",
".  c #0F2805",
"X  c #0F2608",
"o  c #112907",
"O  c #102508",
"+  c #122908",
"@  c #313E1C",
"#  c #1B470F",
"$  c #1C490F",
"%  c #1B4610",
"&  c #1D4A13",
"*  c #235C17",
"=  c #20531C",
"-  c #2A6D1F",
";  c #3B4725",
":  c #3D4A24",
">  c #3F5C28",
",  c #276223",
"<  c #2A6C21",
"1  c #326223",
"2  c #2C7322",
"3  c #2E7925",
"4  c #317F27",
"5  c #307F2A",
"6  c #3D7536",
"7  c #327C33",
"8  c #404C26",
"9  c #415C2A",
"0  c #575937",
"q  c #44612B",
"w  c #49642E",
"e  c #4C6232",
"r  c #4D6832",
"t  c #5A6738",
"y  c #417837",
"u  c #42753C",
"i  c #676A3E",
"p  c #4B7544",
"a  c #716A46",
"s  c #657341",
"d  c #607E43",
"f  c #6D7B44",
"g  c #77714A",
"h  c #6B7E50",
"j  c #807B57",
"k  c #318027",
"l  c #33842B",
"z  c #358B2D",
"x  c #37902D",
"c  c #38922F",
"v  c #3A982F",
"b  c #398B37",
"n  c #3B9C32",
"m  c #3C933B",
"M  c #3E9D3E",
"N  c #3EA336",
"B  c #3FA03E",
"V  c #46873B",
"C  c #42AA3D",
"Z  c #439847",
"A  c #449848",
"S  c #499B4F",
"D  c #518B57",
"F  c #6F804E",
"G  c #42A749",
"H  c #4AA14B",
"J  c #43A949",
"K  c #4AAC4E",
"L  c #45B242",
"P  c #46B449",
"I  c #47B849",
"U  c #48B848",
"Y  c #4FAD53",
"T  c #55AC5A",
"R  c #5E9D60",
"E  c #689660",
"W  c #75936A",
"Q  c #60BB6B",
"!  c #79A079",
"~  c #4DC552",
"^  c #52C45A",
"/  c #53CF5E",
"(  c #53D35E",
")  c #53CF61",
"_  c #53D260",
"`  c #5DDE6F",
"'  c #64C66C",
"]  c #6DC874",
"[  c #75CA7C",
"{  c #68E97D",
"}  c #888857",
"|  c #91815A",
" . c #948D5A",
".. c #96955D",
"X. c #99975E",
"o. c #998A60",
"O. c #9F9562",
"+. c #A2956E",
"@. c #AD9F6E",
"#. c #A2A46B",
"$. c #ABA46E",
"%. c #AFA171",
"&. c #BEAF74",
"*. c #CEBA7F",
"=. c #78D488",
"-. c #69EC80",
";. c #70E280",
":. c #78E389",
">. c #71EB89",
",. c #8ECE99",
"<. c #81E593",
"1. c #84EE9C",
"2. c #A2CDA8",
"3. c #AACFB0",
"4. c #91EEA8",
"5. c #8EF1A5",
"6. c #94F1AA",
"7. c #98F2AF",
"8. c #9EF2B2",
"9. c #A0F3B4",
"0. c #A6F6BB",
"q. c #AAF8BE",
"w. c #D0C487",
"e. c #AFFBC5",
"r. c #B2FBC6",
"t. c #B3FBC8",
"y. c #B9FACC",
"u. c #BFF9D0",
"i. c #C3FBD5",
"p. c #C8FBD7",
"a. c #D2FCDE",
"s. c #D7FCE5",
"d. c #DAFDE4",
/* pixels */
"*.*.*.*.&.&.&.&.*.*.*.*.w.w.w.w.w.w.w.w.w.w.w.w.w.w.w.w.w.w.w.w.*.*.*.*.w.w.w.w.w.w.w.w.w.w.w.w.w.w.w.w.w.w.w.w.*.*.*.*.%.j %.%.",
"*.*.*.*.&.&.&.&.*.*.*.*.w.w.w.w.w.w.w.w.w.w.w.w.w.w.w.w.w.w.w.w.*.*.*.*.w.w.w.w.w.w.w.w.w.w.w.w.w.w.w.w.w.w.w.w.*.*.*.*.@.@.+.+.",
"*.*.*.*.&.&.&.&.*.*.*.*.w.w.w.w.w.w.*.*.w.w.w.w.w.w.w.w.w.w.w.*.*.*.*.*.w.w.w.w.w.w.*.*.w.w.w.w.w.w.w.w.w.w.w.w.*.*.*.*.+.+.+.+.",
"*.*.*.*.&.&.&.&.*.*.*.*.w.w.w.w.w.w.w.*.w.w.w.w.w.w.w.w.w.w.w.*.*.*.*.*.w.w.w.w.w.*.*.*.w.w.w.w.w.w.w.w.w.w.w.w.*.*.*.*.+.+.+.+.",
"*.*.*.*.*.*.*.*.&.&.&.&.&.&.&.&.+.+.+.+.@.@.@.@.*.&.&.&.*.*.*.*.*.*.*.*.*.*.*.*.&.&.&.&.&.&.&.&.*.*.*.*.*.*.*.*.@.@.@.@.%.%.@.@.",
"*.*.*.*.*.*.*.*.&.&.&.&.&.&.&.&.+.+.+.+.@.@.@.@.&.&.&.&.*.*.*.*.*.*.*.*.*.*.*.*.&.&.&.&.&.&.&.&.*.*.*.*.*.*.*.*.@.@.@.@.%.%.@.@.",
"*.*.*.*.*.*.*.*.&.&.&.&.&.&.&.&.+.+.+.+.@.@.@.@.&.&.&.&.*.*.*.*.*.*.*.*.*.*.*.*.&.&.&.&.&.&.&.&.*.*.*.*.*.*.*.*.@.@.%.@.@.@.@.@.",
"*.*.*.*.*.*.*.*.&.&.&.&.&.&.&.&.+.+.+.+.@.@.@.@.&.&.&.&.*.*.*.*.*.*.*.*.*.*.*.*.&.&.&.&.&.&.&.&.*.*.*.*.*.*.*.*.@.@.@.@.@.@.@.@.",
"&.&.&.&.*.*.*.*.*.*.*.*.*.*.*.*.&.&.&.&.*.*.*.*.&.&.&.&.@.@.@.@.&.@.@.@.@.@.@.@.@.@.@.@.&.&.&.&.&.&.&.&.*.*.*.*.*.*.*.*.j +.+.+.",
"&.&.&.&.*.*.*.*.*.*.*.*.*.*.*.*.&.&.&.&.*.*.*.*.&.&.&.&.@.@.@.@.%.%.@.@.@.@.@.@.@.@.@.@.&.&.&.&.&.&.&.&.*.*.*.*.*.*.*.*.%.%.+.+.",
"&.&.*.%.*.*.*.*.*.*.*.*.*.*.*.*.&.&.&.&.*.*.*.*.&.&.&.&.@.@.%.@.@.@.@.@.@.@.@.@.@.@.@.@.&.&.&.&.&.&.&.&.*.*.*.*.*.*.*.*.+.+.+.+.",
"*.&.%.*.*.*.*.*.*.*.*.*.*.*.*.*.&.&.&.&.*.*.*.*.&.&.&.*.@.@.%.%.@.@.@.@.@.@.@.&.@.@.@.@.&.&.&.*.&.&.&.*.*.*.*.*.*.*.*.*.+.+.+.+.",
"o.+.+.+.o.o.o.o.o.o.o.o.+.+.+.+.+.+.+.+.o.o.o.o.j o.j o.| | | | j j o.o.o.o.o.o.j j | | o.o.o.o.j | | | | | | | o.o.o.o.j j o.o.",
"+.+.+.+.o.o.o.o.o.o.o.o.+.+.+.+.+.+.+.+.o.o.o.o.j j j j | | | | j @.o.o.o.o.o.o.j o.| | o.o.o.o.| | | | | | | | o.o.o.o.j o.o.j ",
"+.+.+.+.o.o.o.o.o.o.o.o.+.+.+.+.+.+.@.o.o.o.o.o.o.j O.j | | | | @.o.o.o.o.o.o.o.o.o.| | o.o.o.o.| | | | | | | | o.o.o.o.| | o.j ",
"+.+.+.+.o.o.o.o.o.o.o. .+.+.+.+.+.+.+.@.o.o.o.o.o.o.O.j | | | j o.o.o.o.o.o.o.o.o.j | | o.o.o.o.| | | | | | | | o.o.o.o.| | | o.",
"*.*.*.*.w.w.w.w.@.@.@.@.*.w.w.w.w.w.w.w.w.w.w.w.w.w.w.w.@.@.@.@.w.w.w.w.w.w.w.w.w.w.w.w.*.*.*.*.&.&.&.&.&.&.&.&.@.@.@.@.*.*.*.*.",
"*.*.*.*.w.w.w.w.@.@.@.@.w.w.w.w.w.w.w.w.w.w.w.w.w.w.w.w.@.@.@.@.w.w.w.w.w.w.w.w.w.w.w.w.*.*.*.*.&.&.&.&.&.&.&.&.@.@.@.@.*.*.*.*.",
"*.*.*.*.w.w.w.w.@.@.@.@.w.w.w.w.w.w.w.w.w.w.w.w.w.w.w.#.9 # # # % % % % % r $.w.w.w.w.w.*.*.*.*.&.&.&.&.&.&.&.&.@.@.@.@.*.*.*.*.",
"*.*.*.*.w.w.w.w.@.@.@.@.w.w.w.w.w.w.w.w.w.w.w.w.w.w.w.#.9 # # # $ $ $ % % w #.w.w.w.w.w.*.*.*.*.&.&.&.&.&.&.&.&.@.@.@.@.*.*.*.*.",
"&.&.&.&.*.*.*.*.*.*.*.*.&.&.&.&.@.@.@.@.&.&.&.&.@.} s h W ! R A Z Z Z m b V d f ..&.&.&.*.*.*.*.*.*.*.*.*.*.*.*.*.*.*.*.&.&.&.&.",
"&.&.&.&.*.*.*.*.*.*.*.*.&.&.&.&.@.@.@.@.&.&.&.&.@.s % p 3.s.9.-.-.-.-.` ( P < % f &.&.&.*.*.*.*.*.*.*.*.*.*.*.*.*.*.*.*.&.&.&.&.",
"&.&.&.&.*.*.*.*.*.*.*.*.&.&.*.%.@.@.@.@.&.&.&.&.%.s % p 3.s.8.-.-.-.-.` ( P < % f &.&.&.*.*.*.*.*.*.*.*.*.*.*.*.*.*.*.*.&.&.&.&.",
"&.&.&.&.*.*.*.*.*.*.*.*.&.&.&.*.@.@.@.$.&.&.X.w % ! d.a.u.t.5.-.-.-.{ / N B ~ / 7 X ;  .*.*.*.*.*.*.*.*.*.*.*.*.*.*.*.*.&.&.&.&.",
"@.@.@.@.@.@.@.@.*.&.&.&.*.*.*.*.*.&.&.&.&.&.o.q $ ! s.s.u.t.5.-.-.-.-.^ N C ~ ( 7 O 8 O.&.&.&.&.&.&.&.&.@.@.@.@.@.@.@.@.@.@.@.@.",
"@.@.@.@.@.@.@.@.&.&.&.&.*.*.*.*.&.&.&.&.f f F W ! 2.p.u.y.r.5.{ -.-.-.^ n N L I C 5 u i i &.&.&.&.&.&.&.@.@.@.@.@.@.@.@.@.@.@.@.",
"@.@.@.@.@.@.@.@.&.&.&.&.*.*.*.*.&.&.&.&.% % p 3.d.p.t.r.t.r.5.-.-.-.-.^ n n n N U ( C =   &.&.&.&.&.&.&.@.@.@.@.@.@.@.@.@.@.@.@.",
"@.@.@.@.@.@.@.@.&.&.&.&.*.*.*.*.&.&.&.&.% % p 3.d.i.e.e.r.e.5.-.-.-.-.^ n n v v U ( H *   &.&.&.&.&.&.&.@.@.@.@.@.@.@.@.@.@.@.@.",
"| | | | | | | |  . .o.o.o.o.o.o.O.O.+.+.% % u ,.t.<.) / ) ) :.t.r.e.e.[ n v x l x v k $ O o.o.o.o.o.o.o.+.+.+.+.o.o.o.o.| | | | ",
"j | | | | | | | o.| o.o.o.o.o.o.+.O.+.+.% % u ,.t.<._ ( ( _ <.t.t.t.t.[ n v z l v n k $ O o.o.o.o.o.o.o.+.+.+.+.o.o.o.o.| | | | ",
"| | | | | | | | o.o.o.o.o.o.o.o.+.+.+.+.% % p ,.t.<._ ( ( ( <.r.r.0.8.] n c l 3 x v > @ O o.o.o.o.o.o.o.+.+.+.+.o.o.o.o.| | | | ",
"| | | | | | | | o.o.o.o.o.o.o.o.+.+.+.+.% % 6 ,.t.<.( ( ( _ <.r.q.7.5.' n x 3 < k V 2 @ O o.o.o.o.o.o.o.+.+.+.+.o.o.o.o.| | | | ",
"*.*.*.*.w.w.w.w.w.w.w.w.*.*.*.*.&.&.&.&.% # u ,.r.<.( ( ( ( <.r.q.7.5.' n c 3 < l n k %   w.w.w.w.w.w.w.w.w.w.w.*.*.*.*.@.@.@.@.",
"*.*.*.*.w.w.w.w.w.w.w.w.*.*.*.*.&.&.&.&.% $ u ,.r.<.( ( ( ( <.r.q.7.5.' n c 3 < k n k %   w.w.w.w.w.w.w.w.w.w.w.*.*.*.*.@.@.@.@.",
"*.*.*.*.w.w.w.w.w.w.w.w.*.*.*.*.&.&.&.&.# # u ,.t.<.( ( _ _ <.r.q.7.5.' n z 3 - l n 5 % X w.w.w.w.w.w.w.w.w.w.w.*.*.*.*.@.@.@.@.",
"*.*.*.*.w.w.w.w.w.w.w.*.*.*.*.*.&.&.&.*.% # u ,.t.<.( ( ( ( :.9.8.6.5.' n z 3 - c I m &   w.w.w.w.w.w.w.w.w.w.w.*.*.*.*.@.@.@.@.",
"*.*.*.*.&.&.&.&.*.*.*.*.*.*.*.*.*.*.*.*.% # u ,.t.<.( ( ( ( ;.5.5.6.6.Q n x 3 - B ( G =   @.@.@.&.&.&.&.@.@.@.@.@.@.@.@.O.+.+.+.",
"*.*.*.*.&.&.&.&.*.*.*.*.*.*.*.*.*.*.*.*.% # u ,.t.<.( ( ( ( ;.6.5.5.5.) n x 3 - B _ J =   @.@.@.&.&.&.&.@.@.@.@.%.@.@.@.+.+.+.+.",
"*.*.*.*.&.&.&.&.*.*.*.*.*.*.*.*.*.*.*.*.% # y ,.r.<.( ( ( ( ;.4.1.>.-.Y 2 2 k l P _ G = + @.@.@.&.&.&.&.@.@.@.@.@.@.@.@.+.+.+.+.",
"*.*.*.*.&.&.&.&.*.*.*.*.*.*.*.*.*.*.*.*.# & u ,.r.<.( ( ( ( { 4.1.>.{ K - 2 k l J _ G &   @.@.@.&.&.&.&.@.@.@.@.@.@.@.%.+.+.+.+.",
"w.w.w.w.*.*.*.*.&.&.&.&.&.&.&.&.+.@.@.@.i s F E E T C C C L Y T T Y K m 5 b T Q S 7 6 t i &.&.&.@.@.@.@.@.@.@.@.*.*.*.*.@.@.@.@.",
"w.w.w.w.*.*.*.*.&.&.&.&.&.&.&.&.@.@.@.@.$.$.} > $ - C C z z 4 - < < - 4 l H =.4.D   :  .&.&.&.&.@.@.@.@.@.@.@.@.*.*.*.*.@.@.@.@.",
"w.w.w.w.*.*.*.*.&.&.&.&.&.&.&.&.@.@.@.@.@.@.} 9 # - v v z 4 3 1 < < - 3 l H =.4.D + 8  .&.&.&.&.@.@.@.@.@.@.@.@.*.*.*.*.@.@.@.@.",
"w.w.w.w.*.*.*.*.&.&.&.*.&.&.&.&.@.@.@.@.@.@.@.$.&.i $ * z C x l 5 2 < M ( G =   i &.&.&.&.&.&.&.@.@.@.@.@.@.@.@.*.*.*.*.@.@.@.@.",
"o.j | | j | | | o.o.o.o.+.+.+.+.+.+.+.+. .o.o.o.j a @ * k C V y 5 2 - M ( J = + t +.+.+.o.o.o.o.o.o.o.o.| | | | | | j o.j j o.j ",
"j | | | | | | | o.o.o.o.+.+.+.+.+.+.+.+.o.o.o.o.j j i w 1 * * @ = & & , 7 6 e 0 j +.+.+.o.o.o.o.o.o.o.o.| | | | | | o.o.o.j j o.",
"o.j | | | | | | o.o.o.o.+.+.+.+.+.+.+.+.o.o.o.o.o.j j a @ . O O o   o     @ g o.+.+.+.+.o.o.o.o.o.o.o.o.| | | | | | o.j j @.j O.",
"o.j | | | | | | o.o.o.o.+.+.+.+.+.+.+.+.o.o.o.o.j j o.i @ . O O           @ g o.+.+.+.+.o.o.o.o.o.o.o.o.| | | | | | o.j o.j j j ",
"w.w.w.w.@.@.@.@.*.*.*.*.*.w.w.w.w.w.w.w.*.*.*.*.*.*.*.*.@.@.@.@.w.w.w.w.w.w.w.w.w.w.w.w.@.@.@.@.*.*.w.w.*.*.*.*.*.*.w.w.w.w.w.w.",
"w.w.w.w.@.@.@.@.*.*.*.*.*.w.w.w.w.w.w.w.*.*.*.*.*.*.*.*.@.@.@.@.w.w.w.w.w.w.w.w.w.w.w.w.@.@.@.@.*.*.w.w.*.*.*.*.w.w.w.w.w.w.w.w.",
"w.w.w.w.@.@.@.@.*.*.*.*.w.w.w.w.w.w.*.*.*.*.*.*.*.*.*.*.@.@.@.@.w.w.w.w.w.w.w.w.w.w.*.*.@.@.@.@.w.w.w.w.*.*.*.*.w.w.w.w.w.w.w.w.",
"w.w.w.w.@.@.@.O.*.*.*.*.w.w.w.w.w.w.*.*.*.*.*.*.*.*.*.*.@.@.@.@.w.w.w.w.w.w.w.w.w.w.*.*.@.@.@.@.w.w.w.w.*.*.*.*.w.w.w.w.w.w.w.w.",
"*.*.&.&.&.&.*.&.*.*.*.*.*.*.*.*.@.@.@.@.@.@.@.@.*.*.&.&.@.@.@.@.&.%.@.@.*.*.*.*.*.*.*.*.&.&.&.&.*.*.*.*.*.*.&.&.&.&.&.&.*.&.&.&.",
"@.*.&.&.&.&.&.&.*.*.*.*.*.*.*.*.@.@.@.@.@.@.@.@.&.&.&.&.@.@.@.@.%.%.@.@.*.*.*.*.*.*.*.*.&.&.&.&.*.*.*.*.&.&.&.&.&.&.&.&.&.&.&.&.",
"*.@.*.&.&.&.&.&.*.*.*.*.*.*.*.*.@.@.@.@.@.@.@.@.&.&.&.&.@.@.@.@.@.@.@.@.*.*.*.*.*.*.*.*.&.&.&.&.*.*.*.*.&.&.&.&.&.&.&.&.&.&.&.&.",
"@.*.@.&.&.&.&.&.*.*.*.*.*.*.*.*.@.@.@.@.@.@.@.@.&.&.&.&.@.@.@.@.@.@.@.@.*.*.*.*.*.*.*.*.&.&.&.&.*.*.*.*.&.&.&.&.&.&.&.&.&.&.&.&.",
"&.&.&.&.@.@.@.@.@.@.@.@.*.&.&.&.*.*.*.*.*.&.&.&.@.@.@.@.+.+.+.+.*.*.*.*.*.*.*.*.&.&.&.&.@.@.@.@.@.@.@.@.@.@.@.@.@.@.@.@.@.@.@.@.",
"&.&.&.&.@.@.@.@.@.@.@.@.*.@.&.&.*.*.*.*.&.&.&.&.@.@.@.@.+.+.+.+.*.*.*.*.*.*.*.*.&.&.&.&.@.@.@.@.@.@.@.@.@.@.@.@.@.@.@.@.@.@.@.@.",
"&.&.@.&.@.@.@.@.@.@.@.@.&.&.&.*.*.*.*.*.&.&.&.&.@.@.@.@.+.+.+.+.*.*.*.*.*.*.*.*.&.&.&.&.@.@.@.@.@.@.@.@.@.@.@.@.@.@.@.@.@.@.@.@.",
"&.&.*.*.@.@.@.@.@.@.@.@.&.&.&.$.*.*.*.*.&.&.&.&.@.@.@.@.+.+.+.+.*.*.*.*.*.*.*.*.&.&.&.&.@.@.@.@.@.@.@.@.@.@.@.&.@.@.@.@.@.@.@.@.",
"j j o.j o.o.o.o.o.o.o.o.| | | | | | | | o.o.o.o.+.+.+.+.+.+.+.+.+.+.+.+.j o.o.o.| | | | o.o.o.o.j | | | | | | | | | | | j o.o.j ",
"j o.o.j o.o.o.o.o.o.o.o.| | | | | | | | o.o.o.o.+.+.+.+.+.+.+.+.+.+.+.+.O.o.o.o.| | | | o.o.o.o.| | | | | | | | | | | | j j o.o.",
"| | j O.o.o.o.o.o.o. .o.| | | | | | o.j o.o.o.o.+.+.+.+.+.+.+.+.+.+.+.+.o.o.o.o.| | | | o.o.o.o.| | | | | | | | | | | | | | j o.",
"| | o.j o.o.o.o.o.o. . .| | | | | | | o.o.o.o.j +.+.+.+.+.+.+.+.+.+.@.@.o.o.o.o.| | | | o.o.o.o.| | | | | | | | | | | | | | | | "
};
