/* XPM */
static char *result[] = {
/* columns rows colors chars-per-pixel */
"64 64 62 1 ",
"  c #0F2705",
". c #0F2805",
"X c #0F2708",
"o c #0F2808",
"O c #102606",
"+ c #102B06",
"@ c #102609",
"# c #122909",
"$ c #123007",
"% c #1A2C12",
"& c #1D460F",
"* c #1C490F",
"= c #1C4511",
"- c #1C4910",
"; c #224617",
": c #224914",
"> c #264919",
", c #294B1B",
"< c #2A6E1F",
"1 c #2B701F",
"2 c #2A6D20",
"3 c #2B7120",
"4 c #33862D",
"5 c #35892E",
"6 c #348631",
"7 c #348830",
"8 c #3C9C33",
"9 c #53CE5F",
"0 c #54D35E",
"q c #54CE61",
"w c #54D161",
"e c #6AEB7E",
"r c #91815A",
"t c #998A60",
"y c #A2956E",
"u c #AD9F6E",
"i c #AFA272",
"p c #B0A373",
"a c #BEAF74",
"s c #BFB076",
"d c #C1B279",
"f c #CEBA7F",
"g c #6BE682",
"h c #69EB81",
"j c #CFBB81",
"k c #8DF39F",
"l c #91EFA6",
"z c #91EEA9",
"x c #8EF2A5",
"c c #8FF0A8",
"v c #91F1A7",
"b c #D0C487",
"n c #D1C68A",
"m c #AEFBC5",
"M c #AFFBC8",
"N c #B3FBC5",
"B c #BAF7CC",
"V c #B5FBC9",
"C c #D4F0CE",
"Z c #D4FDE2",
"A c #DAFDE4",
"S c #DAFDE8",
/* pixels */
"ffffaaaajjffbbbbbbbbbbbbbbbbbbbbffffbbbbbbbbbbbbbbnbbbbbffffyyyy",
"ffffaaaaffffbbbbbbbbbbbbbbbbbbbbffffbbbbbbbbbbbbbbbbbbbbffffyyyy",
"ffffaaaaffffbbbbbbbbbbbbbbbbbbbbffffbbbbbbbnbbbbbbbbbbbbffffyyyy",
"ffffaaaaffffbbbbbbbjbbbbbbbbbbbbffffbbbbbbbjbbbbbbbbbbbbffffyyyy",
"ffffffffaaaaaaaayyyyuuuuaaaaffffffffffffaaaaaaaaffffffffuuuuuuuu",
"ffffffffaaaaaaaayyyyuuuuadaaffffffffffffaaaaaaaaffffffffuuuuuuuu",
"ffffffffaaaaaaaayyyyuuuuaaaaffffffffffffaaaaaaaaffffffffuuuuuuuu",
"ffffffffaaaaaaaayyyyuuuuaaaaffffffffffffaaaaaaaaffffffffuuuuuuuu",
"aaaaffffffffffffadaaffffaaaauuuuuuuuuuuuuuuuaaaaaaaaffffffffyyyy",
"aaaaffffffffffffaaaaffffaaaauuuuuuuuuuuuuuuuaaaaaaaaffffffffyyyy",
"aaaaffffffffffffaaaaffffaaaauuuuuuuuuuuuuuuuaaaaaaaaffffffffyyyy",
"aaaaffffffffffffaaadffffaadauuuuuuuuuuuuuuuuaaadaaaaffffffffyyyy",
"yyyyttttttttyyyyyyyyttttrrrrrrrrrtttttttrrrrttttrrrrrrrrttttrrrr",
"yyyyttttttttyyyyyyyyttttrrrrrrrrttttttttrrrrttttrrrrrrrrttttrrrr",
"yyyyttttttttyyyyyyyyttttrrrrrrrrtrttttttrrrrttttrrrrrrrrttttrrrr",
"yyyyttttttttyyyyyyyyttttrrr====-:&:-==>trrrrttttrrrrrrrrttttrrrr",
"ffffbbbbuuuubbbbbbbbbbbbbbn===*********bbbbbffffaaaaaaaauuuuffff",
"ffffbbbbuuuubbbbbbbbbbbbnbn==--*--****:nnbbbffffaaaaaaaauuuuffff",
"ffffbbbbuuuubbbbbbbbbbbb;==AAZgghehe000*=>bbffffasaaaaaauuuuffff",
"fffjbbbbuuuubbbbbbbbbbbb-&-ASZghhhee000*&=bbffffaaaaaaaauuuuffff",
"aaaaffffffffaaaauuuuaasd=&=ASZhhhhhh000**-aajjffffffffffffffaaaa",
"aaaaffffffffaaaauuuua,==AAAVVNghhehh888099#@@fffffffffffffffaaaa",
"aaaaffffffffaaaauuuus===AASVVVghhheh88800w#X@jjjffffffffffffaaaa",
"aaaaffffffffaaaauuiid===ASSVVNhhhhhh8880wq$oofjjffffffffffffaaaa",
"uuuuuuuuaaaaffffaa%-=CAABBBNVMhhhehh888888099#@@aaaauuuuuuuuuuuu",
"uuuuuuuuaaaaffffsa--&ASSVNNNNMhhhhhe8888880wq+.Oaaaauuuuuuuuuuuu",
"uuuuuuuuaaaaffffsa---ASAMNNmMMghhhhh888888009+@@asaauiuuuuuuuuuu",
"uuuuuuuuaaaaffffas--&NVMqq90qqmMmMMm888544888+.@aaaauuuiuuuuuuuu",
"rrrrrrrrttttttttyy=--NVNq00wwwmNVNNN888544888++@rtttyyyyttttrrrr",
"rrrrrrrrttttttttyy=**NVMq0000wMVVVVN888544888++Ottttyyyyttttrrrr",
"rrrrrrrrttttttttyy=--NVMq0000wmNNzxx888122888++@ttttyyyyttttrrrr",
"rrrrrrrrttttttttyy=-=NVN00000wmNNzxx8881<2888++#ttttyyyuttrrrrrr",
"ffffbbbbbbbbffffaa-*-NVM000w0wNNNzcc888322888 +@bbbbbbbbffffuuuu",
"ffffbbbbbbbbffffaa-&-NVN00000wMNNzxc88832<888+X@bbbbbbbbffffuuuu",
"ffffbbbbbbbbffffaa=&-NNN00w00wMNNzcx8882<<888  @bbbbbbbbffffuuuu",
"ffffbbbbbbbfffffaa---NNM000w0qmNNccx8882<<888  Xbbbbbbbbffffuuuu",
"ffffaaaaffffffffff=&-NVM90000wxxzxxx888<<<00w..@aaaauuuuuuuuyyyy",
"ffffaaaaffffffffff&*-NBN00000wxxxxxx888<<<00q+.@aaaauuuuuuuuyyyy",
"ffffaaaaffffffffff=*-NVM00000wxxlxxx888<<1000++@aaaauuuuuuuuyyyy",
"ffffaaasffffffffff=**NVNw0000wxvxgge<<<545w0q+O@aaaduuuuuuuuyyyy",
"bbbbffffdaaaaaaauu=&=NVMw0w000xxxhhe2<<444ww9OOOuuuuuuuuffffuuuu",
"bbbbffffaaaaaaaauu=-=NNmwww0w0kxxeee3<<4769q9OO@uuuuuuuuffffuuuu",
"bbbbffffaaddaaaauuiip-**888475222<<<444xcc++Oaaduuuuuuuuffffuuuu",
"bbbbffffaaadaaaauuuuu&**888444222<2<444xcc+.Oadduuuuuuuuffffuuuu",
"rrrrrrrrttttyyyyyyyyr,-:888444<<222<377vzzO#%tttrtttrrrrrrrrrrrr",
"rrrrrrrrttttyyyyyyyytttt---888544222www++@yyttttttttrrrrrrrrrrrr",
"rrrrrrrrttttyyyyyyyytttt;-&888444<2<www++#yyttttttttrrrrrrrrrrrr",
"rrrrrrrrtttryyyyyyyytttt>-&888444<22qwq##%yyttttttttrrrrrrrrrrrr",
"bbbbuuuuffffbbbbbbbbfffffff$+++ +++++++bbbbbuuuunbbbffffbbbbbbbb",
"bbbbuuuuffffbbbbbbbbfffffff+OO     O+OObbbbbuuuubbbbffffbbbbbbbb",
"bbbbuuuuffffbbbbbbbffffffff+OOOOOOOOOO+bbbbbuuuubbbbffffbbbbbbbb",
"bbbbuuuuffffbbbbbbbfffffffffuuuubbbbbbbbbbbfuuuubbbbffffbbbbbbbb",
"saaaaaaaffffffffuuuuuuuuddaauuuuuuuuffffffffaaaaffffddaaaaaaaaaa",
"aaaaaaaaffffffffuuuuuuuuadaauuuuuuuuffffffffaaaaffffaaaaaaaaaaaa",
"aaaaaaaaffffffffuuuuuuuuaaaauuuuuuuuffffffffaaaaffffaaaaaaaaaaaa",
"aaaaaaaaffffffffuuuuuuuuaaaauuuuuuuuffffffffaaaaffffaaaaaaaaaaaa",
"aaaauuuuuuuuaaaaffffddaauuuuyyyyffffffffaaaauuuuuuuuuuuuuuuuuuuu",
"aaaauuuuuuuuaaaaffffddaauuuuyyyyffffffffadaauuuuuuuuuuuuuuuuuuuu",
"daaauuiuuuuuaaaaffffdaaauuuuyyyyffffffffaadduuuuuuuuuuuuuuuuuuuu",
"aaaduuipuuuuaaaaffffddaauuiiyyyyffffffffaddduuuuuuuuuuuuuuuuuuuu",
"rrrrttttttttrrrrrrrrtttryyyyyyyyyyyyrtttrrrrttttrrrrrrrrrrrrrrrr",
"rrrrttttttttrrrrrrrrtttyyyyyyyyyyyyyttttrrrrttttrrrrrrrrrrrrrrrr",
"rrrrttttttttrrrrrrrrttrryyyyyyyyyyyyttttrrrrttttrrrrrrrrrrrrrrrr",
"rrrrttttttrrrrrrrrrrttyryyyyyyyyyyyyttttrrrrttrrrrrrrrrrrrrrrrrr"
};
