/* XPM */
static char *result[] = {
/* columns rows colors chars-per-pixel */
"64 64 71 1 ",
"  c #0F2706",
". c #0F2806",
"X c #0F2608",
"o c #102606",
"O c #112B06",
"+ c #10250A",
"@ c #122B09",
"# c #133208",
"$ c #1F3115",
"% c #203017",
"& c #1B470F",
"* c #1C490F",
"= c #1B4512",
"- c #1C4911",
"; c #1F5010",
": c #214616",
"> c #234A16",
", c #254919",
"< c #2C4D1D",
"1 c #2A6D1F",
"2 c #314E20",
"3 c #2A6D20",
"4 c #2B7120",
"5 c #33862D",
"6 c #34892D",
"7 c #338530",
"8 c #348830",
"9 c #3B9735",
"0 c #3C9C33",
"q c #3DA035",
"w c #54CD5E",
"e c #54D45E",
"r c #55C761",
"t c #54CD61",
"y c #54D261",
"u c #6AEA7D",
"i c #91815A",
"p c #958660",
"a c #998A60",
"s c #A2956E",
"d c #AD9F6E",
"f c #A69974",
"g c #AFA171",
"h c #B0A273",
"j c #BEAF74",
"k c #C0B279",
"l c #CEBA7F",
"z c #6BE683",
"x c #69EC80",
"c c #CFBC82",
"v c #8CF59E",
"b c #91EEA6",
"n c #91EDA9",
"m c #8EF2A5",
"M c #8FF1A8",
"N c #92F1A5",
"B c #ABFCBF",
"V c #D0C487",
"C c #D1C58A",
"Z c #CCE3BF",
"A c #ADFBC4",
"S c #AFFAC8",
"D c #B4FBC5",
"F c #BCF6CE",
"G c #B5FBC9",
"H c #B8F8CA",
"J c #D1FDDD",
"K c #D8FDDF",
"L c #D4FCE1",
"P c #DAFDE4",
"I c #DBFCE8",
/* pixels */
"lllljjjjllllVVVVVVVVVVVVVVVVVVVVllllVVVVVVVVVVVVVVVVVVVVllllssss",
"lllljjjjllllVVVVVVVVVVVVVVVVVVVVllllVVVVVVVVVVVVVVVVVVVVllllssss",
"lllljjjkllllVVVVVVVVVVcVVVVVVVVVllllVVVVVVVVVVVVVVVVVVVVllllssss",
"lllljjjkllllVVVVVVVVVVCVVVVVVVVVllllVVVVVVVcVVVVVVVVVVVVllllssss",
"lllllllljjjjjjjjssssddddjjjjcllllllllllljjjjjjjjlllllllldddddddd",
"lllllllljjjjjjjjssssddddjjjjlllllllllllljjjjjjjjlllllllldddddddd",
"lllllllljjjjjjjjssssddddjjjjlllllllllclljjjjjjjjlllllllldddddddd",
"lllllllljjjjjjjjssssddddjjjjlllllllllllljjjjjjjjlllllllldddddddd",
"jkjklllllllllllljjjjcclljkjkddddddddddddddddjjjjjjjjllllllllssss",
"jjjklllllllllllljjjjlcllk======-=====&==<dddjjjkjjjjllllllllssss",
"jjkkllcllllllllljjjjllllk=*&-&****&&****>dddjkjjjjkjllllllllssss",
"jjkkllcclllllllljjjjllllk=&*&&*****&****=gddjjjkjjkklllVllllssss",
"asssiaaaaasassssssssaaaap$--=---**--*;**-pipaaaaiiiiiiiiaaaaiiii",
"ssssaaaaaaiassssssssa,:==LPPJzxzuzxuuywwr-==,aaaiiiiiiiiaaaaiiii",
"ssssaaaaaaaasssssssfa=&&-PIILzxuxxxxuyeet--&=aaaiiiiiiiiaaaaiiii",
"ssssaaaaaaiisssssssfa=---PIILxxxuxxxxyeee--&=aaaiiiiiiiiaaiiiiii",
"lllllVVVddddlVVVVVVCC==&=PPILzxxxxxxueeee;*--cccjjjjjjjjddddllll",
"llllVVVVddddVVVVV2:==PKPLHHHSzxxxxxuuq000wewr@XXojjjjjjjddddllll",
"llllVVVVddddVVVVV>&&&PPPIHGGSzuuuxuuuq0q0eeetOXXojjjjjjjddddllll",
"llllVVVVddddVVVVV:&&&PPIPGHGSzxxxxuuuq000eeeyO..ojjkjjjjddddllll",
"jjjjllllllllkkkkh====PPPLHGDAxxuxuxxuqq00eeew#..ollccllllllljjjj",
"jjjjllllllllk%&&=ZPPPFHHGGGGAxxxxxxxuq00000qqwwwro+++llllllljjjj",
"jjkkllllllllk&**=KPPPGHGDGGGAzxxuxxxuq00000qqeeetOOOollllllljjjj",
"jjkkllllllllk&**&PIPPGGGGGGGSxxxxxxxuq0000000eeetOo +clllllljjjj",
"ddddddddjjjjl&**=PPILSSAASSSAxxzxxxxz0q000000eeetO. +ddddddddddd",
"ddddddddjjjjl&**&DHHStttwttytAAAAAAAA90q066660009O. +ddddddddddd",
"ddddddddjjjjl***&DDGSteeeyeyyAGGSGGGA000065550009O.O+ddddddddddd",
"ddddddddjjjjl***&DGGSteeeeeeyAGGSGGGA900055550009#.@Xddddddddddd",
"iiiiiiiiiaaaa***-DGGSteeyeyeyAGGGGGGA00006556q009O..+sssaaaaiiii",
"iiiiiiiiaaaai***&DGGSteeeeeeyAGGDnMMm90q041140009OO.+sssaaaaiiii",
"iiiiiiiiaaaaa***-DGDSweeyyeyyASDAMMMm000011110000OO.+sssaaaaiiii",
"iiiiiiiiaaaaa***-DGGSweeeeeeyAGGDnmmm000011110009O..@sssaaaiiiii",
"llllVVVVVVVVl=***DGGBeeeeyeetAGDDMMbm900011330000...+VVVcllldddd",
"llllVVVVVVVVl-**-DGGDeeeeeeyySGGGnbMm000011319000...+VVVlllldddd",
"llllVVVVVVVVl=**=DGGAweeeyeeyAGDAbMMv000011110000...+VVVlllldddd",
"llllVVVVVVVVl=***DGGAweeeeyytADDDMMMm000011110009...+VVVlllldddd",
"lllljjjjlllll&&*-DGGSeeeyeyeyBSDAnMmm000041110qq0...@dddddddssss",
"lllljjjjlllll=&*-GGGSweeeeeeymmbbmMMm00001111eeyy#..Xdddddddssss",
"lllljjjjlllll=***DGGAeeeeeeeymmNMbmmv00004111eeytO..Xdddddddssss",
"lllljjjjlllll&**=DGGSeeeeyeeymNmbMmmm00001111eeew...+dddddddssss",
"VVVVlllljjjjj***-GGGSweeeyeeymmmmmmmm99001114yeytOO Xdddlllldddd",
"VVVVllllkjjjj****DGGSeeeeeeeymmmmuzxx11116666eeetO  +dddlllldddd",
"VVVVlllljjjkj&&**DDGAweeeeeeymmmmzxxu13115666eyyrO X+dddlllldddd",
"VVVVlllljjjkj&&*=DGGAeeeeeeeemmmmxxuu43315558yeyyO  odddlllldddd",
"iiiiiiiiaaaas$:==DDDByyeyyyywvvbmuuuu43317777rttwOo++iiiiiiiiiii",
"iiiiiiiiaaaasffsf-*--00006685333113335555mmmMOOO@aaiiiiiiiiiiiii",
"iiiiiiiiaaaasssss==&-00006555113111115575mmMMO..+aaaiiiiiiiiiiii",
"iiiiiiiiiaaasssss=---00005555311113315557mmmn...@aaaiiiiiiiiiiii",
"VVVVddddllllVVVVV2>&*90005555111333316665Nnbbooo%VVVllllVVVVVVVV",
"VVVVddddllllVVVVVVVVl****000065553314wyetOoO@dddCVVVllllVVVVVVVV",
"VVVVddddllllVVVVVVVVl>*&*000065551334weewOo@odddVVVVllllVVVVVVVV",
"VVVVddddllllVVVVVVVVl<&&*000066551114weetOo@@dddVVVVllllVVVVVVVV",
"jjjjjjjjllllllllddddd2>#&909965553134wttr@+@$jjjllllkkjjjjjjjjjj",
"jjjjjjjjllllllllddddddddkOOOOoOOO@o+OOOO@clljjjjlllljjjjjjjjjjjj",
"jjjjjjjjllllllllddddddddkoooo...O.  ooOo+llljjjjlllljjjjjjjjjjjj",
"jjjjjjjjllllllllddddddddjooo.o..    ooooollljjjjlllljjjjjjjjjjjj",
"jjjjddddddddjjjjllllkkjjd+o+++++++o+ooooojjjdddddddddddddddddddd",
"jjjjddddddddjkjjllllkkjjddddsssslllllllljjjjdddddddddddddddddddd",
"jjjjddddddddjjjjlllckjjjddddsssslllllllljjkkdddddddddddddddddddd",
"jjkkddggddddjjjjlllckjjjddddsssslllllllljkkkdddddddddddddddddddd",
"iiiiaaaaaaaaiiiiiiiiaaaassssssssssssiaaaiiiiaaaaiiiiiiiiiiiiiiii",
"iiiiaaaaaaaaiiiiiiiiaiaassssssssssssaaaaiiiiaaaaiiiiiiiiiiiiiiii",
"iiiiaaaaaaaaiiiiiiiiaaaassssssssssssaaaaiiiiaaaaiiiiiiiiiiiiiiii",
"iiiiaaaaaaiiiiiiiiiiaaaassssssssssssaaaaiiiiaaiiiiiiiiiiiiiiiiii"
};
