/* XPM */
static char *result[] = {
/* columns rows colors chars-per-pixel */
"64 64 253 2 ",
"   c #1A150F",
".  c #291C0C",
"X  c #281C15",
"o  c #341D10",
"O  c #1A2016",
"+  c #31250B",
"@  c #2A2313",
"#  c #282618",
"$  c #2C241B",
"%  c #372719",
"&  c #393319",
"*  c #2B1E26",
"=  c #282621",
"-  c #382B24",
";  c #3A3429",
":  c #2E2E30",
">  c #45170E",
",  c #4C1A17",
"<  c #541D17",
"1  c #6F1B18",
"2  c #43281D",
"3  c #5A231D",
"4  c #592919",
"5  c #48351D",
"6  c #64291C",
"7  c #62321F",
"8  c #452A24",
"9  c #5B2622",
"0  c #5A2C28",
"q  c #463927",
"w  c #593626",
"e  c #4A3E34",
"r  c #5C343A",
"t  c #672C23",
"y  c #772E29",
"u  c #653323",
"i  c #6A3425",
"p  c #683A26",
"a  c #6C342A",
"s  c #6C3B2A",
"d  c #77362A",
"f  c #72352D",
"g  c #723B2D",
"h  c #673839",
"j  c #7C3432",
"k  c #753C37",
"l  c #7B3C34",
"z  c #504631",
"x  c #6B422C",
"c  c #6D4633",
"v  c #754B33",
"b  c #7A4C37",
"n  c #7A4438",
"m  c #7B4E3A",
"M  c #795139",
"N  c #7D523B",
"B  c #6F3C41",
"V  c #6F4948",
"C  c #734244",
"Z  c #7B4948",
"A  c #7C5445",
"S  c #75694B",
"D  c #7C6956",
"F  c #79745A",
"G  c #8B302E",
"H  c #843A36",
"J  c #86463C",
"K  c #94443E",
"L  c #81533E",
"P  c #913C47",
"I  c #A23C47",
"U  c #844B43",
"Y  c #884846",
"T  c #8A4D44",
"R  c #984944",
"E  c #825642",
"W  c #835B45",
"Q  c #8C524B",
"!  c #86584A",
"~  c #97554A",
"^  c #93554D",
"/  c #9A5B4D",
"(  c #8A5854",
")  c #955A52",
"_  c #9A5D55",
"`  c #975A58",
"'  c #A54946",
"]  c #AA4B4A",
"[  c #B64C4B",
"{  c #A45147",
"}  c #A55C55",
"|  c #B85B58",
" . c #876248",
".. c #8A654C",
"X. c #8A7A4E",
"o. c #8A6A54",
"O. c #9E6156",
"+. c #956C57",
"@. c #9D625A",
"#. c #867957",
"$. c #8C7E54",
"%. c #8E7F5A",
"&. c #937B57",
"*. c #927E5B",
"=. c #A26255",
"-. c #A3645B",
";. c #AB675D",
":. c #A66A5D",
">. c #B1655A",
",. c #9F5961",
"<. c #9B6A67",
"1. c #9C7A68",
"2. c #A56965",
"3. c #AB6C63",
"4. c #A87768",
"5. c #AE716E",
"6. c #B8766C",
"7. c #B47C76",
"8. c #BC7D74",
"9. c #C25457",
"0. c #CF6F6B",
"q. c #C17C72",
"w. c #8D8155",
"e. c #8E815A",
"r. c #918256",
"t. c #988756",
"y. c #91825B",
"u. c #99855C",
"i. c #96895D",
"p. c #998A5D",
"a. c #A4945D",
"s. c #8C8562",
"d. c #938462",
"f. c #968B62",
"g. c #9A8B62",
"h. c #9A8B69",
"j. c #9E9667",
"k. c #9D936A",
"l. c #9B9075",
"z. c #A6876B",
"x. c #A29465",
"c. c #AA9C65",
"v. c #A7966A",
"b. c #A2946C",
"n. c #A59A6A",
"m. c #AC9E6C",
"M. c #B19C6C",
"N. c #A88773",
"B. c #BD8275",
"V. c #B88579",
"C. c #A39471",
"Z. c #A69B77",
"A. c #AD9E71",
"S. c #B19E72",
"D. c #B7957B",
"F. c #A8A36A",
"G. c #ADA16C",
"H. c #B1A36D",
"J. c #B6A86A",
"K. c #BBAC6D",
"L. c #BBB16A",
"P. c #AEA172",
"I. c #ABA477",
"U. c #B2A473",
"Y. c #B7A776",
"T. c #BDAE73",
"R. c #BDAE79",
"E. c #BEB174",
"W. c #B4B279",
"Q. c #BEB27A",
"!. c #C78972",
"~. c #C58578",
"^. c #C4847A",
"/. c #CC847B",
"(. c #CC8A7D",
"). c #D5887B",
"_. c #D28D7D",
"`. c #D8917F",
"'. c #E1907B",
"]. c #C1AD6E",
"[. c #C1AD76",
"{. c #C1B175",
"}. c #C4B47A",
"|. c #CBB67C",
" X c #C9B979",
".X c #CDBA7E",
"XX c #D2B37B",
"oX c #D1BB7D",
"OX c #CCC27E",
"+X c #D2C37E",
"@X c #BA7D84",
"#X c #BB9B85",
"$X c #B8928A",
"%X c #BCA587",
"&X c #BAA994",
"*X c #BBB59E",
"=X c #BFB0A6",
"-X c #C58A83",
";X c #CC8D82",
":X c #D28E82",
">X c #DA8E84",
",X c #CE9184",
"<X c #C99687",
"1X c #D49284",
"2X c #D49489",
"3X c #D89788",
"4X c #DB9B8D",
"5X c #CF9291",
"6X c #DC9C92",
"7X c #DD9A99",
"8X c #E19889",
"9X c #C2A889",
"0X c #CAB783",
"qX c #CEBB81",
"wX c #D1BB82",
"eX c #D4BA89",
"rX c #C5AB93",
"tX c #DBA297",
"yX c #DCA49B",
"uX c #E3A69A",
"iX c #E6A99B",
"pX c #EFA99A",
"aX c #CAB7A6",
"sX c #DABBA6",
"dX c #E6ACA2",
"fX c #E7AAA6",
"gX c #EBAEA2",
"hX c #F6ADA4",
"jX c #EEB2A5",
"kX c #EEB4AA",
"lX c #E9B8A9",
"zX c #F2B3A5",
"xX c #F2B6AA",
"cX c #F4B9AD",
"vX c #F8BBAD",
"bX c #F6BCB1",
"nX c #F3B8B5",
"mX c #F9BDB2",
"MX c #CEC485",
"NX c #CEC38A",
"BX c #D1C486",
"VX c #D5C987",
"CX c #D2C589",
"ZX c #D3C98B",
"AX c #CFC495",
"SX c #D9C6AD",
"DX c #D0C5B0",
"FX c #E9C7B1",
"GX c #FBC1B5",
"HX c #FBC1B6",
"JX c #EAD4BA",
"KX c #EEDCC4",
"LX c #F5E3CD",
/* pixels */
"wX.XwXqX[.T.Q.E.|.qX|.qXMXCXCXMXMXCXCXZXMXCXMXBXCXBXMXNXCXMXBX+XwX|.|.wXZXBXCX+XMXMXZXMX+XBXMXMXMXBXCXBXCXBXCXBX0X|.OXqXx.b.C.x.",
".X|.qX.XT.T.Q.E..XqX XqXMXCXMXMXMXCXMXCXMXMXMXZX+X+XVXZXMXBXMXVX XBX XOXqXCXMXNXCXMXOXZXZXZXZXMXMXMXMXMXMXMXMXBXwXXX XqXn.C.C.k.",
"wX.XwX|.[.T.T.T..X|.|..XBXCXCXCXZXNXNXCXMXZXMXMXAXeXCXCXBXCXCXNXoX|..X.XBXOXCXAXOXMXAXMXCXNXqXZXCXMXCXCXMXCXCXCX.X XoX|.b.C.C.b.",
".X.XqX.X{.{.{.[..XqX.XMXBXCXMXMXNXNXeXeXCXMXMXMXNXZXZX.XVXBXCXBXXXeX0X|.VXZXOXVXZXBXZXOXOXMXCXMXBXBXBXMXBXBXBXBXqX.X.X0Xv.b.b.b.",
".X.XwX.X.X|.|.qXT.{.T.T.E.E.T.E.x.n.n.n.m.m.G.G.E.L.L.E.{.R.m.Y.J.H.Y.U.S.R.wX|.K.}.K.}.L.{.{.L.qXqXwX.XwXqXqX.XM.m.m.H.n.m.A.m.",
".XwX.XwX.XqX.XwX{.{.T.T.E.E.K.T.b.b.C.b.m.A.P.P.K.{.K.%XZ.5 . X # X = ; - 5 Z.Y.I.b.Q.Y.E.].K.K..X.X.X.XoX|.wX|.U.P.m.P.m.H.G.m.",
".X.XwXqXqX.X|.qXK.T.T.T.E.T.T.{.b.C.C.b.A.I.P.n.G.G.G.f.z #.M x x v z.&X*X&Xz & = q h.F.a.E.0X%XwXwXwXwXwXwXoXwXm.m.P.A.m.m.G.P.",
".XwX.X.XoXqXoXwXE.{.T.T.E.T.T.T.C.b.C.k.P.G.n.r.; # # q 1.N.E L A N W ....#XaXaXAX*Xe = z h.F.L..X.X.X.X|.wXqX|.G.G.P.m.G.A.m.A.",
"T.[.{.].qX|.qXoX|.qX.X.X.X.X X.XE.L.R.R.0X.XJ.e rXN.N.4.N...b W  .4.L v M +.9X#X9XKXDXDX*Xq & l.P.W.Q.{.|.eX0XoX.XqX0XqXb.b.C.C.",
"E.R.R.T.0XqXqX.XqXqXwX.XqXwXqXwXK.E.}.{.|..XT.; aXrX&X[...N E z.z.W N N  .lXsX&.D.FXKXLXKXDXl.& q p.L.L.0XoX.X|..XoXqXqXb.b.k.b.",
"T.K.E.E..X.XoXoX.XoX.X.XoX.X.X.X{.T.J.Y.oX}.C.q sXJXFX9XN.V. .L L v N N N.D.<Xz...D.SXFXFXJXSX#X&Xc k.E..XwX|.oX|..X.X0Xv.b.C.b.",
"E.E.{.E.|.|.|.|..XoX.X.X.XwX.X.XT.W.0XR..XT.; o.#XsX<Xz.L z.4.L M v b b A N N E M L +.W ..<XSX9X&X&Xz j. X|.|.CXwXeX0X0Xn.C.j.b.",
"b.b.k.b.g.g.x.g.p.g.p.g.x.b.b.b.n.b.j.j.t.#.  x c c x s s x x g i i p s u s b v b L v v b N ..D.&XrXaXe S t.$.&.p.t.p.g.$.*.s.y.",
"C.C.C.b.f.f.d.g.g.g.g.h.b.C.C.C.b.Z.k.j.f.D 8 w s g g J <XJ g i x s g g g i g p i i i L N M N D.sXFXKXaXe D d.$.g.p.p.h.%.y.%.*.",
"b.b.b.b.p.p.p.p.p.p.p.p.x.b.j.k.k.k.Z.b.F 8 <XdXiXyXdXiXcXdXiXgXuXgXgXyXiXtXn f d i i 7 u b N L +.sXKXJX*X; #.w.p.p.p.p.e.y.y.y.",
"b.b.b.b.p.p.p.p.p.g.u.g.b.C.b.b.b.n.z.p.. r iXcXcXcXcXcXcXbXcXcXGXcXmXbXGXbXuX~.!.~.6.n p i b m m $.SXKXDXq S e.g.g.p.p.y.y.$.y.",
".X.XqX.XCXMXCXMXA.P.m.m.CXCXMXBXMXOXMXE.O g tX4X4X1X>X3X3XGXlXGXGXcXbXcXcXcXnX4X:X:X1Xq.8.d u m v ( D.S.JX=Xq F.G.G.G.m..XoXwXqX",
".XqXqX|.CXMXCXMXm.S.G.G.CXNXCXBXZXZX.XI.2 7.1X!.(.1X1X(.4XjXGXcXlXGXcXGXbXcXzX1X1X_.1X3X(._ n u v c W  .#XaXz e.A.A.P.c.wXwX|.|.",
"qX.X.X|.BXMXMXMXU.c.m.c.CXCXCXMXBXBXY.- 4 V./.3.;.(._.4XzXvXGXGXGXbXkXvXmXvXjX3X:X1X:X1X_.:X6.p s L J M  .$X*Xq g.A.A.m.qXwX|.BX",
".XqXqXqXBXZXCXCXM.c.H.H.NXCXCXMXMXCXZ.- 3.:.;.O.!.1X2XjXGXvXcXcXvXkXiXzXzXgX4X_.1X_.1X:X:X1X8.f 7 v b L W 9XaX- x.c.M.H.0XwX|.}.",
"T.T.E.[.|..X X XqXqX0X|.E.T.T.E.F.z.# 0 _ } ) :.1X(.4XcXbXbXmXHXGXvXiXuX4X4X1X1X:X:X1X:X:X;X} t s v M ! D.[.*X; H.qXoX X[.R.[.}.",
"{.T.{.{.qX.XqXqXqXwXqXqXT.T.T.E.F.X.% 4.-.=.2.~.1X1XzXcXmXcXbXxXlXGXvXlXzXjX6X(.:X3X1X_.).:X_ t 7 M  .z.B.D.N.; x.qXoX X].R.T.T.",
"T.T.E.T.qX.XqXqXwX|.|..XT.E.T.T.k.% p ~.1X~.(._.:X4XcXlXbXbXGXmXcXcXGXcXmXGXzX6X2X(.(.1X:X(.=.i i N v N W L ..o.z m..XoXE.Y.Q.T.",
"E.R.T.T.qX.XwX.XoX|.wX.XT.T.{.[.f.# 6.).:X5X_.3X4XzXvXbXmXbXcXbXGXcXGXcXmXcXcXxX4X1X3X`._.;X~.i p v M M J m E z.@ %XwX X{.E.E.T.",
"A.A.A.G.P.m.A.A.T.E.{.T..X.XqX.Xc.= 7.'.;X1X6XgXcXmXcXGXcXGXlXmXcXbXbXbXmXcXmXmXcXkXzX3X:X1XB.i p m m m N M A 4.$ j.A.S.m.m.A.G.",
"m.P.A.m.m.G.G.m.E.E.{.{.qX.X.X|.c.$ V.).6XzXjXmXxXgXcXkXcXcXGXcXcXGXcXGXmXdXgXgXmXmXxX1X:X:X~.l 7 b L m m M  .g.$ f.m.m.M.G.m.G.",
"G.m.G.m.m.m.G.m.T.T.T.T.qXqXwX|.x.- 7.8XjXgX2X~.,X(.(.,X1XvXGXcXvXgXjXiX1X(.=.:.uXgXiX3X:X:X:X6.s s v b E n E 4.# f.F.H.S.m.P.G.",
"m.A.G.A.P.A.m.A.Q.R.Q.{.qX0XqXwXn.% B.zXyX;.) _ ~ / ~ / 1XzXlX2X2X;X3.=.^ / T Q / _ =.~.:._ _ } 7 i m N N b W d.% f.G.A.m.m.A.m.",
"y.y.y.w.y.r.e.y.p.t.p.t.p.t.u.p.d.o 4.8.( U Y k b L J ^ ^.6XfX2X^.3.U J L n J J J U n Q J @.@.Q a p b m b b ! 4.X $.p.u.y.r.*.w.",
"%.y.%.y.*.%.*.y.g.p.h.p.g.u.g.i.F o i 4 3 6 0 t 3 < , Z @.8.^.} ) Q Q 0 < t t < 9 , < < 3 E ( U U u s c L N W 1.= #.p.g.t.%.%.%.",
"%.%.%.%.%.*.e.%.p.i.g.i.g.g.g.%.$ 8 H Q 8.8.2.<.<.h 0 , > 9 P y 9 > 9 Z <.<.5.5.<.( ) ^ U 9 > 3 t u n M M N A N.= %.p.g.y.%.d.y.",
"y.y.y.y.y.e.y.e.f.p.g.p.g.g.f.X.  8 / 3.^.q.Z B h h B r , k l H t < C B V B B B k B ` <.` n 4 h 3 4 s b M N +.rX$ $.y.g.t.$.d.$.",
".X.XqX|.CXMXMXBXMXMXCXBX0XwX|.J.X Z !.(.@XV r B r h h h 0 5X7XR h , h h C B r r r C / -.Q 0 3 ) ^ i s m M z.D.&X: F.wXXXP.S.G.c.",
"qXqXwX.XCXMXMXMXMXBXCXBX|.|.qX].% A !.(.<.B B k B h C Y 9 7XnX7XP < Z Q 2.7.Z C V ` ;.^.@.< 5.,X(.^ t u L L x x o c.0XoXU.m.c.Y.",
".X.XqX|.CXMXMXCXZXMXCXBXqX.XqX|.f.% 4X,X3.q.^.$X$Xq.$XY f fXnX7XH t 5.-X;X;X7.-XdXgX4XtX@.Q :X).(.O.4 p p 6 6 t 4 4 Z.{.m.S.G.n.",
"qXwXwXwXMXMXNXCXBXBXBXBXqX.XwXqXG.% 4.6X(.4XvXlXhXnXV.a -XnXnXfXH y ` dXnXxXxXnXcXvXzX2X` _ (.).:XO.u u 6 y ' K K l q Y.F.U.Z.P.",
"|..X.X|.E.E.E.T.MX.X.XwX.X.X.X.XH.. Q uXkXpXvXcXmXuX) a 7XfXnXfXH l ) yXkXGXbXcXvXxXiXQ a 8.(.1X:Xq.l i t K ' ] [ P X r.x.b.v.j.",
"qXwXwX.XE.T.T.T..X.X.X.XwX.X.X.XY.% P } -X2XdXgX,XV.f ` fXnXnX7XY j Q l 7XyXdXdX,X~.@.O.^ (.3X1X:X1X6.l K ' ] ' ' Y X p.c.b.C.j.",
"|..X.X.XT.E.T.T.|.wX.XqXwX.X.X.XY.X ` ;X+.-.2.=._ _ @.fXkXkXvX4XP j ) T s g ..-.=.;.^.~.(._.1X(.:X3X/.{ ] ' ' ' ' K # g.k.j.N.n.",
".XqX|.wXT.[.R.[.wXwXwX.X.XoX.XqXY.@ } pXdXkXgX).).:X,X6XiXfX2XT G H Y 8.yX~.;X:X(.(.~.>.!.`._.1X_.:X/.] ] ' ' ' ' H % k.C.C.C.j.",
"CXBXVXBXqX|.qX|.T.{.T.T.T.T.T.T.h.. -.zXvXnXGXcXxXjX:XT K H Y j j j j 3.jXlXlXcXzX3X3.O.-.;X(.1X`.).} R ' ] ] ] P + j.qXP.A.S.m.",
"CXNXCXBXqXqXwXwXT.T.T.T.E.{.E.E.g.& ( uXGXbXcXxXxXxX:XH y j j G y y H 2.uXGXGXcXxXgX-X=.;.^.(.1X$X} ' { ' ' ' ] T + U.wXm.m.S.F.",
"BXMXBXBX X X.X.XE.{.].T.T.T.T.T.Z.*.- -XmXvXcX3X6XvXuX~ J K H H H H H / 2XcXvXvXzX6X-X-.) ;.(.:X:X} ' ' { ' ' H 7 Z.qX|.G.P.S.m.",
"CXBXZXBXMXqXqX.XR.Q.R.R.Q.Q.R.R.U.u.; 7.pX3X,X1X2XhXmXdXgX7X3._ ~ _ } } ,XzXvXzX4X(.8.3._ O.:X1Xq.{ ' ' ] I B & v.eXqXeXG.m.S.m.",
"%.%.e.*.&.$.*.*.p.p.p.p.x.b.j.b.x.b.F 8 !.1X1X`.:XkXmXmXFXGXiX5X3._ ;.^.,X2XuX4X(.,X3.^ _ -.(._.=.d H P Z o + D r.X.t.X.w.e.r.e.",
"y.%.y.d.e.d.d.d.u.i.g.g.j.n.b.b.b.C.s.; 3.$X)./.3.1XdXxXgXcXbXgXtX-X^.2X~.-.6.^.1X~.O.) _ :.;X6.H m o @ @ S #.X.e.&.&.g.y.$.u.e.",
"y.w.y.r.r.$.&.r.g.g.f.g.b.b.C.C.C.b.m.F % -.).,X_ _ 5.q.:X).0.).;.q.} R -.) ;.(.(.3./ -._ _ q.J Z . F #.o.w.w.y.w.p.%.s.#.u.y.e.",
"*.%.*.y.%.y.y.y.p.g.p.g.b.C.k.b.C.b.v.f.= T ~.,X=._ } G G G G G 1 1 1 1 ~ } -.,X1Xq.-._ ` :.^.d V o #.g.u.w.e.*.t.*.e.s.y.&.r.e.",
"MXZXMXMXG.G.A.U..XqX|.qXMXCXBXMXZXCXMXOXj.2 7.(.3.2.!.| 9.0.0.0.[ ] [ [ | 6.:XgX;X:.-._ =.^.8.l Y * W.BXqXoX0XoXBXBXMXCXMXCXMXMX",
"BXBXCXNXG.m.m.m.wX.X.X|.BXCXMXMXCXBXMXBXW.5 A @.;XuXgX).0.| 9.| | 0.0.>XpXhXpX2X-X} _ _ -.^.l ~ Q $ T.VXqX X0X.XBXBXCXBXCXMXMXCX",
"MXBXCXMXH.m.m.P.|..X.XqXBXCXCXCXMXqXZXVX}.C.> ( ^.3X3X`.).} } ;.} | /.:X>X3X3X(.=.-.` ` ` 6.l ^ A & T.CX}.oX.XqXZXMXCXBXMXZXZXCX",
"CXCXCX0XJ.H.m.m..XwX.XqXBXCXBXBXCXCXCXqX0XW.q A 3.~.1X_.^.8.^.(.2X;X2X1X2X:XB.:.` ` } ^ ) n ^ Q % P.eXeXMX.X.XwXBXBXBXCXBXBXMXZX",
"T.E.{.{.K.T.R.{..XwXqX.XwXwX|.qXG.m.H.m.H.n.%.$ ^ ;X:X:X4XdXxXnXkXbXjX4X;X~.3.=.` =._ ) l U ) Q % b.wX}.{.].].R.{.E.{.E.E.E.{.E.",
"E.T.T.E.T.R.T.T..XwX.X.X|..X|.|.P.c.U.A.n.U.b.% A 2X).3XxXmXbXmXnXHXmXiX6X^.-.^ ) _ Y a Q O.2.^ A & T..XT. XT.R.E.T.E.[.E.E.E.T.",
"T.T.T.T.T.{.E.T..XwX.X.XwXqXqXqXS.m.m.P.U.x.m.e.% 5.3X1XgXcXcXcXcXvXgX2X^.3.} ` ` T f f ^ ) ) O.Q X H. XR.].Q.Q.T.T.E.T.T.E.T.T.",
"E.T.T.T.T.T.T.T..XwX.X.X.X.X.X.Xm.H.F.n.m.Y.F.g.. c q./.,X,X;X:X:X(.,X;.-.^ ` Q f f ^ ) ` ` _ ) Q * Y. X[.[.W.T.T.E.T.T.E.].T.E.",
"[.T.T.R.G.m.A.P.P.P.H.m.[.T.[.E..X.XoX.XT.[.T.G.& <.n l ` / _ ` -.@.) ) ^ Y l f Q ) ` ` O.) O.O.Q . h.c.I.I.c.S.U.n.S.m.G.m.A.S.",
"E.{.T.T.G.G.m.m.m.m.m.G.E.T.{.E..XqXqXqXR.{.R.T.%.8 3._ f d l ^ Q Q l a a k U ^ ) ) O.O.O.) ) O.( . f.Y.c.m.H.A.m.U.m.m.m.m.U.A.",
"K.T.T.T.G.m.m.P.P.G.m.G.T.R.T.K..X.X.X.XT.E.L.E.h.$ 7.!.:.R Y d i f Y ^ ^ ^ _ @.O.) @.) ) ` O.O.Z % s.m.U.M.G.P.A.n.S.m.U.G.F.m.",
"}.}.R.R.U.m.m.m.m.n.m.U.Y.R.}.{..X|.|..X{.{.{.E.h.= 8.>XB.2.<.~ ) ) O.@._ _ _ ) O.` ) O.) O.) ` ` 1.w %.s.l.U.M.S.S.U.m.P.n.m.U.",
"$.$.w.r.t.f.g.g.g.g.g.p.r.w.w.$.*.*.y.u.i.p.f.p.g.O 8.>X,X~.2./ O.) ) O.` O.O.` ` O.) ) O.) O.) } :.<.8 . . S F w.i.$.r.r.y.p.$.",
"y.e.y.y.g.f.g.p.f.p.g.g.y.y.y.y.y.*.*.y.h.g.h.g.d.$ B._.1X(.-X;.` ` O.` ) _ _ ) ) O.O.) ` O.` ) ` } +.4.U ;   O S S d.#.%.y.e.#.",
"e.*.$.%.g.g.g.p.p.p.g.g.$.e.*.e.y.r.r.$.p.p.p.r.#.8 8.1X`.`.,XO.) O.O.O.O.` ) O.O.) O.O.O.) ` O.` =.) :.) ; : #   @ S e.y.y.#.g.",
"%.y.y.$.g.p.p.g.p.p.p.g.w.y.e.*.%.e.y.$.g.p.i.w.; <.1X:X1X_.(.@.) O.) ) ) O.` O.` ) ) ) O.) ` @.` } ( ,.) q : ; : # . #.w.r.*.e."
};
