/* XPM */
static char *result[] = {
/* columns rows colors chars-per-pixel */
"64 64 101 2 ",
"   c #06050D",
".  c #08060E",
"X  c #0C0C0F",
"o  c #070511",
"O  c #090612",
"+  c #070B13",
"@  c #0B0913",
"#  c #0B0619",
"$  c #0C091A",
"%  c #110F12",
"&  c #131413",
"*  c #1C1D16",
"=  c #1D1F19",
"-  c #1F201A",
";  c #21231C",
":  c #0F0520",
">  c #1D0934",
",  c #200937",
"<  c #220739",
"1  c #230A3C",
"2  c #262221",
"3  c #2A2624",
"4  c #2C2824",
"5  c #2E2A28",
"6  c #342E2C",
"7  c #343723",
"8  c #463D32",
"9  c #3C4127",
"0  c #3F4429",
"q  c #41442B",
"w  c #484D31",
"e  c #4E5332",
"r  c #525635",
"t  c #575837",
"y  c #555C39",
"u  c #65683E",
"i  c #260D42",
"p  c #290F41",
"a  c #2D0D4D",
"s  c #2E0E53",
"d  c #310F54",
"f  c #2E1254",
"g  c #311154",
"h  c #3A155B",
"j  c #3F1669",
"k  c #461473",
"l  c #491572",
"z  c #4A167A",
"x  c #4C1B7A",
"c  c #50167F",
"v  c #626344",
"b  c #696743",
"n  c #6A6A45",
"m  c #786F4F",
"M  c #79714E",
"N  c #7D794E",
"B  c #7A7150",
"V  c #7E7B56",
"C  c #847C54",
"Z  c #837F59",
"A  c #878256",
"S  c #888357",
"D  c #8E835A",
"F  c #91815A",
"G  c #958E5B",
"H  c #988B5F",
"J  c #998A60",
"K  c #9E9062",
"L  c #9E936B",
"P  c #A19766",
"I  c #A29864",
"U  c #A2956E",
"Y  c #A39F6A",
"T  c #AD9F6E",
"R  c #ADA16D",
"E  c #BEAF74",
"W  c #BDB073",
"Q  c #C8B77C",
"!  c #CEBA7F",
"~  c #4E1682",
"^  c #511782",
"/  c #531A84",
"(  c #56178D",
")  c #56188D",
"_  c #5A1C8F",
"`  c #5E1795",
"'  c #571890",
"]  c #5D1995",
"[  c #5E179A",
"{  c #5E199B",
"}  c #611797",
"|  c #611996",
" . c #611799",
".. c #621A9C",
"X. c #5F17A0",
"o. c #5F19A1",
"O. c #6416A0",
"+. c #631AA3",
"@. c #661CA9",
"#. c #CEC486",
"$. c #D0C487",
/* pixels */
"! ! ! ! E E E E ! ! ! ! #.$.$.$.$.$.$.$.$.$.$.$.$.$.$.$.$.$.#.$.! ! ! ! $.$.$.$.$.$.$.$.$.$.$.$.$.$.$.$.$.$.$.$.! ! ! ! U U U U ",
"! ! ! ! E E E E ! ! ! ! $.$.$.$.$.$.$.$.$.$.$.$.$.$.$.$.$.$.$.$.! ! ! ! $.$.$.$.$.$.$.$.$.$.$.$.$.$.$.$.$.$.$.$.! ! ! ! U U U U ",
"! ! ! ! E E Q W ! ! ! ! $.$.$.$.$.$.$.$.$.$.$.$.$.$.$.$.$.$.$.#.! ! ! ! $.$.$.$.$.$.$.! $.$.$.$.$.$.$.$.$.$.$.$.! ! ! ! U U U U ",
"! ! ! ! E E E W ! ! ! ! $.$.$.$.$.$.$.$.$.$.$.$.$.$.$.$.$.$.$.#.! ! ! ! $.$.$.$.$.$.$.! $.$.$.$.$.$.$.$.$.$.$.$.! ! ! ! U U U U ",
"! ! ! ! ! ! ! ! E E E E E E E E U U U U T T T T Q E E E ! ! ! ! ! ! ! ! ! ! ! ! E E E E E E E E ! ! ! ! ! ! ! ! T T T T T T T T ",
"! ! ! ! ! ! ! ! E E E E E E E E U U U U T T T T E E E E ! ! ! ! ! ! ! ! ! ! ! ! E E E E E E E Q ! ! ! ! ! ! ! ! T T T T T T T T ",
"! ! ! ! ! ! ! ! E E E E E E E E U U U U T T T T E E E E ! ! ! ! ! ! ! ! ! ! ! ! E E E E E E Q R ! ! ! ! ! ! ! ! T T T T T T T T ",
"! ! ! ! ! ! ! ! E E E E E E E E U U U U T T T T E E E E ! ! ! ! ! ! ! ! ! ! ! ! E E E E E E Q R ! ! ! ! ! ! ! ! T T T T T T T T ",
"E E E E ! ! ! ! ! ! ! ! ! ! ! ! E E E E ! ! ! ! E E E E T R T T T T T T T T T T T T T T Q E E Q E ! E E ! ! ! ! ! ! ! ! U U U U ",
"E E E E ! ! ! ! ! ! ! ! ! ! ! ! E E E J H S D D C V C C m M m M m m m m B B B B B B B B C C C C C K E E ! ! ! ! ! ! ! ! U U U U ",
"Q E E E ! ! ! ! ! ! ! ! ! ! ! ! E E F q 6 3 5 3 3 2 5 2 3 2 2 2 3 ; 3 2 2 2 3 2 3 3 3 2 3 4 3 4 < m E E ! ! ! ! ! ! ! ! U U U U ",
"E E E E ! ! ! ! ! ! ! ! ! ! ! ! Q R q   O O @ o   . @ O O   .   @ # O . . . . @ # . .   o @ % o % 8 E ! ! ! ! ! ! ! ! ! U U U U ",
"L U U U J J J J J J J J U U U U U A &   O $ .       . @ .   .   . @ O o O     # #   . . . @ O . % 9 C C F F F C J J J J C C J C ",
"U U U U J J J J J J J J U U U U L V +   o o . .     O O . . o o . O O o o   o . O   O . . . . . X 9 C C F F F F J J J K J C C Z ",
"U U U U J J J J J J J J U U U U L V X . . . o + o O # o + O O O #   . % # o # . . # . . O     @ % 8 K C C J K C J J K K K C K C ",
"U U U U J J J J J J J J U U U U L V X . .   . o o > i 1 1 p 1 1 1 1 1 1 1 i i 1 1 p 1 : O .   . % 8 K C J J C C J J C T C C T C ",
"! ! ! ! $.$.$.$.T T T T ! ! $.$.$.T X . . . . . O h ^ ) ~ ^ / c ^ ~ z c ^ ^ ^ ~ ^ / x > . . O o X r Q E Q W W W I T T T ! ! ! ! ",
"! ! ! ! $.$.$.$.T T T T ! ! $.$.! T X . X . @ . O l ..+.] ] +...| [ ] } ....[ [ +...' 1 o O $ o . r E E R Q W W T T T T ! ! ! ! ",
"! ! ! ! $.$.$.$.T T T T $.$.$.$.$.T % . O % . . # z +...| { | .. .{ { ...... ...| .._ >   + $ . . e E E Q R R Q T T T T ! ! ! ! ",
"! ! ! ! $.$.$.$.T T T T $.$.$.$.$.T % . O @ . . # z  ...+. .] ....{ ........+...| ..] 1 o @ O o . w E E W W Q Q T T T T ! ! ! ! ",
"E E E E ! ! ! ! ! ! ! ! E E E E R A X   .   O . # z [ +.@...] | o.o.{ {  .+.@...| | ] 1 #     O . t ! ! ! ! ! ! ! ! ! ! Q Q E E ",
"E E E E ! ! ! ! ! ! ! ! E E E E R A X   .   . . o z [ +.@. .] ] +.{ o.{ [ @.O.| ]  .] 1 O     o . t ! ! ! ! ! ! ! ! ! ! Q R E E ",
"E E E E ! ! ! ! ! ! ! ! E E E E T A X   o @   . o z [ @.+.{ ] O.+.{ { { { +.O.] | ..] 1 o o o     t Q ! ! ! ! ! ! ! ! ! E E E E ",
"E E E E ! ! ! ! ! ! ! ! E E E ! T A X   O +   o # z  .+.+.{ +.....{ o.{ ..+.+...O...] 1 O @ @ .   t ! ! ! ! ! ! ! ! Q Q E E E E ",
"T T T T T T T T ! E E E ! ! ! ! E G X   . o . . $ z +.+.+.+.+.....O.+.o.....O.O.O.....1 O O o . % t E E T T T T T T T T T T T T ",
"T T T T T T T T E E E E ! ! ! ! E G X   o   + . O z @.....{  .| +.+.+...+....... .| ..1 O . . + % 8 E E T T T T T T T T T T T T ",
"T T T T T T T T E E E E ! ! ! ! W G X   .     o O k ....{ { { ] +.+.{ { ....{ { | | ..< .     . X e E E T T T T T T T T T T T T ",
"T T T T T T T T E E E E ! ! ! ! W G X   . + . . O l ..+. .{ .. ...{ { ....{ { { | | | 1 . o O   . r E E T T T T T T T T T T T T ",
"Z Z K C K C F F F J J J J J J J P C X   . + . o # k ..+. .]  ...` [ {  ...} | [ ....| , . . . . . q J J U U U U J J J J C C K C ",
"J Z C C C K F F J J J J J J J J U V X . o . . . # z O... .| | ....[ ] ] ....{ [ ....] 1 O . . . . q J J U U U U J J J J C C K C ",
"C K C T J J C F J J J J J J J J U V @ o O   . o O z ..+.+.+.| | +.[  .] { +.....` | } < . . . X . 0 J J U U U T J J J J C K C K ",
"Z C C Z J C J F J J J J J J J J U V X . o   . o # z  .+.@.+.] ] { { +.[ ] [ ....` } ` < . . . . . 0 J J U U U K J J K K J C K C ",
"! ! ! ! $.$.$.$.$.$.$.$.! ! ! ! W G X   @ o o o # z ..@.+. .] ] +.[ { ] { ..{ { ] | ] 1 o . @ O   y #.#.$.$.$.$.! ! ! ! T T T T ",
"! ! ! ! $.$.$.$.$.$.$.$.! ! ! ! W G X   @ + +   O z  .+.+.] ] +.+.[ { ]  ... .` ] +.] 1 . + @ o   y #.#.$.$.$.$.! ! ! ! T T T T ",
"! ! ! ! $.$.#.$.$.$.$.$.! ! ! ! W G %   o $     O z ....+.+...+. .{ +...........+.+._ 1   + O   . y #.$.$.$.$.$.! ! ! ! T T T T ",
"! ! ! ! #.$.#.! $.$.$.$.! ! ! ! Q G %   O o . . O ~ +.....+.+. ...+.+.+.....+.+.+...] 1 o   o o . y #.$.$.$.$.$.! ! ! ! T T T T ",
"! ! ! ! E E E E ! ! ! ! ! ! ! ! ! I %   o   . . O z .... .{ .. .+.+.+.{ ..@.+...{ | ..i o   . @ . e W E T T T T T T R T U U U U ",
"! ! ! ! E E E E ! ! ! ! ! ! ! ! Q I %   .   . o # k ..O.{ { { { +.o.[ { ..+.+.[ ..| ] i O     O   e W E T T T T R T T T U U U U ",
"! ! ! ! E Q E E ! ! ! ! ! ! ! ! ! I %   O . O   O l ..+.{ { +. .{ o.[ { ..O.+.X.....] > o o o o   e W W T T T T T T T T U U U U ",
"! ! ! ! E E E E ! ! ! ! ! ! ! ! ! I X   O O .   # l ..@.' [ +...{ [ [ [ +...[ [ ....] > o o o .   e W W T T T T T T T T U U U U ",
"$.$.$.$.! ! ! ! E E E E E E E E R A X     @ . . O z ..O.[ ] ] ..{ { [ { +. .{ { | ..] ,   o O . @ w R T T T T T ! ! ! ! T T T T ",
"$.$.$.$.! ! ! ! E E E E E E E E R A X     X . . # z ..+.+...]  .o.o.o.{ ..O.+...|  .] 1 o . O . . w T T T T T T ! ! ! ! T T T T ",
"$.$.$.$.! ! ! ! E E W W E E E E T S X   .   o + # z { +.@.+.] ] o.o.{ { { +.@...] { _ i O   . $ . w R T T T T T ! ! ! ! T T T T ",
"$.$.$.$.! ! ! ! E Q W W E E E E T S %   .   . . O z { +.+. .] { o.{ o.{ [ +.+.{ ] { ] 1 o     @ o w R T T T T T ! ! ! ! T T T T ",
"F F F F C F F F J J J J U U U U P V .   O . O . $ z { +.+.` ] +.o.{ ] ] { +.+.] { ..| , @ . o o . q H H F F F F F F F F F F F F ",
"F F F F F F F F J J J J U U U U U V X   + . +   # z  ...+.X.+.+.{ { o.{ ..+.+.+.+...| , . O @ o   0 H H F F F F F F F F F F F F ",
"F F F F F F F F J J J J U U U U U V X   O @ .   O ~ +...+.o.+. ...+.+.+.+...+.+.+...| 1 . @ $ .   q H H F F F F F F F F F F F F ",
"F F F F F F F F J J J H U U U U U V X   X + .   @ x @...{ {  .} @.+.o.o.+.+.| ......+.1 . O O o . q H J F F F F F F F F F F F F ",
"$.$.$.$.T T T T ! ! ! ! $.$.$.$.$.Y %   .   . . @ j ] ] ' ' ' ' ] ] ( ( ' ` ( ( ) ' ' 1 # o . O   y #.$.! ! ! ! $.$.$.$.$.$.$.$.",
"$.$.$.$.T T T T ! ! ! ! $.$.$.$.$.Y %       . . O > s f s d d d g a a a a d a a a g g : o . . @   y #.$.! ! ! ! $.$.$.$.$.$.$.$.",
"$.$.$.$.T T T T ! ! ! ! $.$.$.$.$.Y %   . . . . o + $ $ # # # # $ # @ O O o # # # # #   . . . O   y #.$.! ! ! ! $.$.$.$.$.$.$.$.",
"$.$.$.$.T T T T ! ! ! ! $.$.$.$.$.Y %   X . + . o   o o O   o   @ . O . . . o . O .   . . @ . .   y #.$.! ! ! Q $.$.$.$.$.$.$.$.",
"Q Q E E E E E E ! ! ! ! ! ! ! ! T C %   O % X .     O @ O   o   O @ @ o o   . O @       . X . . . r ! ! W W W E E E E E Q E E E ",
"E E E E E E E E ! ! ! ! ! ! ! ! T F &   O . . . o   o @ o o o   o @ O . O   . @ O   . . . % O .   r ! ! W W W W E E E E E E E E ",
"E E E E E E E E ! ! ! ! ! ! ! ! T I 7 . O . X X o . o   o o o o O     O . . O . . @ . . % . X %   e ! ! W W W W E E E E E E E E ",
"E E E E E E E E ! ! ! ! ! ! ! ! T T n 2 - * * * - - - - = = * * = * * = - - ; = = ; ; - * * * 2 - u ! ! W W Q W E E E E E E E E ",
"E E E E T T T T T T T T Q E E E ! ! ! C C C C m b b b b v v v v N N V C N N N N C b C m b b b b C C T T T T T T T T T T T T T T ",
"E E E E T T T T T T T T E E E E ! ! ! ! T E E E T T T T L L L L Q Q Q Q Q Q Q Q E E T T T K T T K T T T T T T T T T T T T T T T ",
"E E E E T T T T T T T T E E E E ! ! ! ! E E E E T T T T U U U U ! ! ! ! ! ! Q ! E E E E T T T T T T T T T T T T T T T T T T T T ",
"E E E ! T T T T T T T T E E E E ! ! ! ! E E E E T T T T U U U U ! ! ! ! ! ! ! ! E E E ! T T T T T T T T T T T E T T T T T T T T ",
"C C J C K J J J J J J J C C K C T C C C J J J J U U U U U U U U U U U U H H H H F F F F J J J J C C J F C J C C K C C J C F F F ",
"C J F J U C J J J J J J C Z C C Z C C K J J J J U U U U U U U U U U U U H H H H F F F F J J J J C J F F J C J J C C J C F F F F ",
"F F F F J K J J J J J J C C K C C Z J Z J J J J U U U L U U U U U U U U J J J J F F F F J J J J F F F F C K C K Z C F F F F F F ",
"F F F F J J J J J J K K K T Z Z K C C C J J H J U U U U U U U U U U U U J J J J F F F F J J J J F F F F K C K C C K F F F F F F "
};
