/* XPM */
static char *result[] = {
/* columns rows colors chars-per-pixel */
"64 64 7 1 ",
"  c #504F50",
". c #585858",
"X c #5F625F",
"o c #6C6B6D",
"O c #747474",
"+ c #807E80",
"@ c #918E91",
/* pixels */
"....OOOO@@@@@@@@oooo@@@@@@@@@@@@OOOO@@@@@@@@@@@@++++++++++++    ",
"....OOOO@@@@@@@@oooo@@@@@@@@@@@@OOOO@@@@@@@@@@@@++++++++++++    ",
"....OOOO@@@@@@@@oooo@@@@@@@@@@@@OOOO@@@@@@@@@@@@++++++++++++    ",
"....OOOO@@@@@@@@oooo@@@@@@@@@@@@OOOO@@@@@@@@@@@@++++++++++++    ",
"XXXXOOOOOOOOOOOO....OOOO++++++++oooo++++OOOO++++OOOO++++OOOO    ",
"XXXXOOOOOOOOOOOO....OOOO++++++++oooo++++OOOO++++OOOO++++OOOO    ",
"XXXXOOOOOOOOOOOO....OOOO++++++++oooo++++OOOO++++OOOO++++OOOO    ",
"XXXXOOOOOOOOOOOO....OOOO++++++++oooo++++OOOO++++OOOO++++OOOO    ",
"@@@@OOOO........ooooOOOOOOOO++++OOOOXXXXOOOOOOOO....OOOOOOOO    ",
"@@@@OOOO........ooooOOOOOOOO++++OOOOXXXXOOOOOOOO....OOOOOOOO    ",
"@@@@OOOO........ooooOOOOOOOO++++OOOOXXXXOOOOOOOO....OOOOOOOO    ",
"@@@@OOOO........ooooOOOOOOOO++++OOOOXXXXOOOOOOOO....OOOOOOOO    ",
"oooo....++++@@@@    OOOOOOOOOOOOOOOOOOOO............oooooooo    ",
"oooo....++++@@@@    OOOOOOOOOOOOOOOOOOOO............oooooooo    ",
"oooo....++++@@@@    OOOOOOOOOOOOOOOOOOOO............oooooooo    ",
"oooo....++++@@@@    OOOOOOOOOOOOOOOOOOOO............oooooooo    ",
"@@@@OOOOooooOOOO++++....ooooOOOOooooOOOOoooo....OOOOooooXXXX    ",
"@@@@OOOOooooOOOO++++....ooooOOOOooooOOOOoooo....OOOOooooXXXX    ",
"@@@@OOOOooooOOOO++++....ooooOOOOooooOOOOoooo....OOOOooooXXXX    ",
"@@@@OOOOooooOOOO++++....ooooOOOOooooOOOOoooo....OOOOooooXXXX    ",
"++++ooooooooooooooooooooOOOOXXXX++++OOOOoooo++++....    oooo    ",
"++++ooooooooooooooooooooOOOOXXXX++++OOOOoooo++++....    oooo    ",
"++++ooooooooooooooooooooOOOOXXXX++++OOOOoooo++++....    oooo    ",
"++++ooooooooooooooooooooOOOOXXXX++++OOOOoooo++++....    oooo    ",
"ooooXXXXXXXXXXXXXXXXooooXXXXXXXXXXXXooooXXXXooooXXXX    ....    ",
"ooooXXXXXXXXXXXXXXXXooooXXXXXXXXXXXXooooXXXXooooXXXX    ....    ",
"ooooXXXXXXXXXXXXXXXXooooXXXXXXXXXXXXooooXXXXooooXXXX    ....    ",
"ooooXXXXXXXXXXXXXXXXooooXXXXXXXXXXXXooooXXXXooooXXXX    ....    ",
"........        ........            ............................",
"........        ........            ............................",
"........        ........            ............................",
"........        ........            ............................",
"@@@@@@@@@@@@....++++oooo....    OOOO++++    ++++@@@@@@@@@@@@@@@@",
"@@@@@@@@@@@@....++++oooo....    OOOO++++    ++++@@@@@@@@@@@@@@@@",
"@@@@@@@@@@@@....++++oooo....    OOOO++++    ++++@@@@@@@@@@@@@@@@",
"@@@@@@@@@@@@....++++oooo....    OOOO++++    ++++@@@@@@@@@@@@@@@@",
"OOOOOOOO++++XXXXOOOOOOOOXXXX    ++++oooo....ooooOOOO++++OOOO++++",
"OOOOOOOO++++XXXXOOOOOOOOXXXX    ++++oooo....ooooOOOO++++OOOO++++",
"OOOOOOOO++++XXXXOOOOOOOOXXXX    ++++oooo....ooooOOOO++++OOOO++++",
"OOOOOOOO++++XXXXOOOOOOOOXXXX    ++++oooo....ooooOOOO++++OOOO++++",
"++++++++OOOO++++....OOOOoooo    oooo....oooo++++++++OOOO....OOOO",
"++++++++OOOO++++....OOOOoooo    oooo....oooo++++++++OOOO....OOOO",
"++++++++OOOO++++....OOOOoooo    oooo....oooo++++++++OOOO....OOOO",
"++++++++OOOO++++....OOOOoooo    oooo....oooo++++++++OOOO....OOOO",
"OOOOOOOOOOOOOOOO    ....    ....@@@@OOOO++++OOOOOOOO....OOOOOOOO",
"OOOOOOOOOOOOOOOO    ....    ....@@@@OOOO++++OOOOOOOO....OOOOOOOO",
"OOOOOOOOOOOOOOOO    ....    ....@@@@OOOO++++OOOOOOOO....OOOOOOOO",
"OOOOOOOOOOOOOOOO    ....    ....@@@@OOOO++++OOOOOOOO....OOOOOOOO",
"OOOOOOOOOOOOXXXX@@@@++++++++    @@@@OOOOOOOOOOOO++++....ooooOOOO",
"OOOOOOOOOOOOXXXX@@@@++++++++    @@@@OOOOOOOOOOOO++++....ooooOOOO",
"OOOOOOOOOOOOXXXX@@@@++++++++    @@@@OOOOOOOOOOOO++++....ooooOOOO",
"OOOOOOOOOOOOXXXX@@@@++++++++    @@@@OOOOOOOOOOOO++++....ooooOOOO",
"ooooooooXXXX++++OOOOOOOOoooo    ++++ooooOOOOoooo++++    oooooooo",
"ooooooooXXXX++++OOOOOOOOoooo    ++++ooooOOOOoooo++++    oooooooo",
"ooooooooXXXX++++OOOOOOOOoooo    ++++ooooOOOOoooo++++    oooooooo",
"ooooooooXXXX++++OOOOOOOOoooo    ++++ooooOOOOoooo++++    oooooooo",
"XXXXXXXXooooXXXXooooooooOOOO    ooooXXXXXXXXooooXXXX        XXXX",
"XXXXXXXXooooXXXXooooooooOOOO    ooooXXXXXXXXooooXXXX        XXXX",
"XXXXXXXXooooXXXXooooooooOOOO    ooooXXXXXXXXooooXXXX        XXXX",
"XXXXXXXXooooXXXXooooooooOOOO    ooooXXXXXXXXooooXXXX        XXXX",
"........................                ........................",
"........................                ........................",
"........................                ........................",
"........................                ........................"
};
