/* XPM */
static char *result[] = {
/* columns rows colors chars-per-pixel */
"64 64 12 1 ",
"  c #4A5234",
". c #53613C",
"X c #5B6D3D",
"o c #504F50",
"O c #585858",
"+ c #5F625F",
"@ c #6B794C",
"# c #6C6B6D",
"$ c #747474",
"% c #72834F",
"& c #807E80",
"* c #918E91",
/* pixels */
"&&&&****XXXX@@@@@@@@%%%%%%%%@@@@XXXX****%%%%%%%%&&&&@@@@%%%%    ",
"&&&&****XXXX@@@@@@@@%%%%%%%%@@@@XXXX****%%%%%%%%&&&&@@@@%%%%    ",
"&&&&****XXXX@@@@@@@@%%%%%%%%@@@@XXXX****%%%%%%%%&&&&@@@@%%%%    ",
"&&&&****XXXX@@@@@@@@%%%%%%%%@@@@XXXX****%%%%%%%%&&&&@@@@%%%%    ",
"****$$$$&&&&....%%%%@@@@%%%%XXXX&&&&$$$$$$$$$$$$$$$$XXXXXXXX....",
"****$$$$&&&&....%%%%@@@@%%%%XXXX&&&&$$$$$$$$$$$$$$$$XXXXXXXX....",
"****$$$$&&&&....%%%%@@@@%%%%XXXX&&&&$$$$$$$$$$$$$$$$XXXXXXXX....",
"****$$$$&&&&....%%%%@@@@%%%%XXXX&&&&$$$$$$$$$$$$$$$$XXXXXXXX....",
"****&&&&$$$$....@@@@XXXX@@@@XXXX$$$$$$$$@@@@&&&&....$$$$XXXXoooo",
"****&&&&$$$$....@@@@XXXX@@@@XXXX$$$$$$$$@@@@&&&&....$$$$XXXXoooo",
"****&&&&$$$$....@@@@XXXX@@@@XXXX$$$$$$$$@@@@&&&&....$$$$XXXXoooo",
"****&&&&$$$$....@@@@XXXX@@@@XXXX$$$$$$$$@@@@&&&&....$$$$XXXXoooo",
"****$$$$####$$$$....&&&&@@@@####$$$$&&&&$$$$####$$$$####....oooo",
"****$$$$####$$$$....&&&&@@@@####$$$$&&&&$$$$####$$$$####....oooo",
"****$$$$####$$$$....&&&&@@@@####$$$$&&&&$$$$####$$$$####....oooo",
"****$$$$####$$$$....&&&&@@@@####$$$$&&&&$$$$####$$$$####....oooo",
"****####XXXX########$$$$XXXX$$$$$$$$XXXX@@@@$$$$####++++$$$$oooo",
"****####XXXX########$$$$XXXX$$$$$$$$XXXX@@@@$$$$####++++$$$$oooo",
"****####XXXX########$$$$XXXX$$$$$$$$XXXX@@@@$$$$####++++$$$$oooo",
"****####XXXX########$$$$XXXX$$$$$$$$XXXX@@@@$$$$####++++$$$$oooo",
"&&&&####....XXXX$$$$############XXXX@@@@XXXX........$$$$####    ",
"&&&&####....XXXX$$$$############XXXX@@@@XXXX........$$$$####    ",
"&&&&####....XXXX$$$$############XXXX@@@@XXXX........$$$$####    ",
"&&&&####....XXXX$$$$############XXXX@@@@XXXX........$$$$####    ",
"####++++........++++####++++....XXXXXXXX........########$$$$....",
"####++++........++++####++++....XXXXXXXX........########$$$$....",
"####++++........++++####++++....XXXXXXXX........########$$$$....",
"####++++........++++####++++....XXXXXXXX........########$$$$....",
"OOOOOOOOoooo    OOOOOOOOoooooooooooo                OOOOOOOOOOOO",
"OOOOOOOOoooo    OOOOOOOOoooooooooooo                OOOOOOOOOOOO",
"OOOOOOOOoooo    OOOOOOOOoooooooooooo                OOOOOOOOOOOO",
"OOOOOOOOoooo    OOOOOOOOoooooooooooo                OOOOOOOOOOOO",
"%%%%%%%%@@@@************&&&&oooo&&&&****************@@@@%%%%%%%%",
"%%%%%%%%@@@@************&&&&oooo&&&&****************@@@@%%%%%%%%",
"%%%%%%%%@@@@************&&&&oooo&&&&****************@@@@%%%%%%%%",
"%%%%%%%%@@@@************&&&&oooo&&&&****************@@@@%%%%%%%%",
"XXXX&&&&&&&&&&&&&&&&$$$$$$$$oooo****&&&&$$$$&&&&&&&&&&&&&&&&@@@@",
"XXXX&&&&&&&&&&&&&&&&$$$$$$$$oooo****&&&&$$$$&&&&&&&&&&&&&&&&@@@@",
"XXXX&&&&&&&&&&&&&&&&$$$$$$$$oooo****&&&&$$$$&&&&&&&&&&&&&&&&@@@@",
"XXXX&&&&&&&&&&&&&&&&$$$$$$$$oooo****&&&&$$$$&&&&&&&&&&&&&&&&@@@@",
"&&&&$$$$$$$$&&&&$$$$$$$$####oooo****$$$$####&&&&####&&&&XXXX$$$$",
"&&&&$$$$$$$$&&&&$$$$$$$$####oooo****$$$$####&&&&####&&&&XXXX$$$$",
"&&&&$$$$$$$$&&&&$$$$$$$$####oooo****$$$$####&&&&####&&&&XXXX$$$$",
"&&&&$$$$$$$$&&&&$$$$$$$$####oooo****$$$$####&&&&####&&&&XXXX$$$$",
"$$$$&&&&&&&&$$$$$$$$XXXX++++oooo****####$$$$####$$$$$$$$....&&&&",
"$$$$&&&&&&&&$$$$$$$$XXXX++++oooo****####$$$$####$$$$$$$$....&&&&",
"$$$$&&&&&&&&$$$$$$$$XXXX++++oooo****####$$$$####$$$$$$$$....&&&&",
"$$$$&&&&&&&&$$$$$$$$XXXX++++oooo****####$$$$####$$$$$$$$....&&&&",
"$$$$$$$$$$$$$$$$####XXXX####oooo&&&&@@@@%%%%$$$$&&&&$$$$########",
"$$$$$$$$$$$$$$$$####XXXX####oooo&&&&@@@@%%%%$$$$&&&&$$$$########",
"$$$$$$$$$$$$$$$$####XXXX####oooo&&&&@@@@%%%%$$$$&&&&$$$$########",
"$$$$$$$$$$$$$$$$####XXXX####oooo&&&&@@@@%%%%$$$$&&&&$$$$########",
"########++++####XXXXXXXX####oooo&&&&%%%%$$$$########$$$$$$$$####",
"########++++####XXXXXXXX####oooo&&&&%%%%$$$$########$$$$$$$$####",
"########++++####XXXXXXXX####oooo&&&&%%%%$$$$########$$$$$$$$####",
"########++++####XXXXXXXX####oooo&&&&%%%%$$$$########$$$$$$$$####",
"++++++++........XXXX####$$$$oooo####........####++++########++++",
"++++++++........XXXX####$$$$oooo####........####++++########++++",
"++++++++........XXXX####$$$$oooo####........####++++########++++",
"++++++++........XXXX####$$$$oooo####........####++++########++++",
"OOOO                OOOOoooooooooooo            OOOOOOOO        ",
"OOOO                OOOOoooooooooooo            OOOOOOOO        ",
"OOOO                OOOOoooooooooooo            OOOOOOOO        ",
"OOOO                OOOOoooooooooooo            OOOOOOOO        "
};
