/* XPM */
static char *result[] = {
/* columns rows colors chars-per-pixel */
"64 64 7 1 ",
"  c #504F50",
". c #585858",
"X c #5F625F",
"o c #6C6B6D",
"O c #747474",
"+ c #807E80",
"@ c #918E91",
/* pixels */
"++++@@@@@@@@@@@@@@@@@@@@@@@@@@@@@@@@@@@@@@@@@@@@++++++++++++    ",
"++++@@@@@@@@@@@@@@@@@@@@@@@@@@@@@@@@@@@@@@@@@@@@++++++++++++    ",
"++++@@@@@@@@@@@@@@@@@@@@@@@@@@@@@@@@@@@@@@@@@@@@++++++++++++    ",
"++++@@@@@@@@@@@@@@@@@@@@@@@@@@@@@@@@@@@@@@@@@@@@++++++++++++    ",
"@@@@OOOO++++OOOO++++++++++++++++++++OOOOOOOOOOOOOOOOOOOO++++    ",
"@@@@OOOO++++OOOO++++++++++++++++++++OOOOOOOOOOOOOOOOOOOO++++    ",
"@@@@OOOO++++OOOO++++++++++++++++++++OOOOOOOOOOOOOOOOOOOO++++    ",
"@@@@OOOO++++OOOO++++++++++++++++++++OOOOOOOOOOOOOOOOOOOO++++    ",
"@@@@++++OOOO++++OOOOOOOOOOOOOOOOOOOOOOOO++++++++ooooOOOOOOOO    ",
"@@@@++++OOOO++++OOOOOOOOOOOOOOOOOOOOOOOO++++++++ooooOOOOOOOO    ",
"@@@@++++OOOO++++OOOOOOOOOOOOOOOOOOOOOOOO++++++++ooooOOOOOOOO    ",
"@@@@++++OOOO++++OOOOOOOOOOOOOOOOOOOOOOOO++++++++ooooOOOOOOOO    ",
"@@@@OOOOooooOOOO++++++++OOOOooooOOOO++++OOOOooooOOOOoooooooo    ",
"@@@@OOOOooooOOOO++++++++OOOOooooOOOO++++OOOOooooOOOOoooooooo    ",
"@@@@OOOOooooOOOO++++++++OOOOooooOOOO++++OOOOooooOOOOoooooooo    ",
"@@@@OOOOooooOOOO++++++++OOOOooooOOOO++++OOOOooooOOOOoooooooo    ",
"@@@@ooooXXXXooooooooOOOO++++OOOOOOOOooooooooOOOOooooXXXXOOOO    ",
"@@@@ooooXXXXooooooooOOOO++++OOOOOOOOooooooooOOOOooooXXXXOOOO    ",
"@@@@ooooXXXXooooooooOOOO++++OOOOOOOOooooooooOOOOooooXXXXOOOO    ",
"@@@@ooooXXXXooooooooOOOO++++OOOOOOOOooooooooOOOOooooXXXXOOOO    ",
"++++ooooXXXXOOOOOOOOooooooooooooooooOOOO++++ooooXXXXOOOOoooo    ",
"++++ooooXXXXOOOOOOOOooooooooooooooooOOOO++++ooooXXXXOOOOoooo    ",
"++++ooooXXXXOOOOOOOOooooooooooooooooOOOO++++ooooXXXXOOOOoooo    ",
"++++ooooXXXXOOOOOOOOooooooooooooooooOOOO++++ooooXXXXOOOOoooo    ",
"XXXXXXXXXXXXXXXXXXXXXXXXXXXXXXXXXXXXXXXXXXXXXXXXXXXXXXXXXXXX    ",
"XXXXXXXXXXXXXXXXXXXXXXXXXXXXXXXXXXXXXXXXXXXXXXXXXXXXXXXXXXXX    ",
"XXXXXXXXXXXXXXXXXXXXXXXXXXXXXXXXXXXXXXXXXXXXXXXXXXXXXXXXXXXX    ",
"XXXXXXXXXXXXXXXXXXXXXXXXXXXXXXXXXXXXXXXXXXXXXXXXXXXXXXXXXXXX    ",
"........        ........            ............................",
"........        ........            ............................",
"........        ........            ............................",
"........        ........            ............................",
"@@@@@@@@@@@@@@@@@@@@@@@@++++    ++++@@@@@@@@@@@@@@@@@@@@@@@@@@@@",
"@@@@@@@@@@@@@@@@@@@@@@@@++++    ++++@@@@@@@@@@@@@@@@@@@@@@@@@@@@",
"@@@@@@@@@@@@@@@@@@@@@@@@++++    ++++@@@@@@@@@@@@@@@@@@@@@@@@@@@@",
"@@@@@@@@@@@@@@@@@@@@@@@@++++    ++++@@@@@@@@@@@@@@@@@@@@@@@@@@@@",
"oooo++++++++++++++++OOOOOOOO    @@@@++++OOOO++++++++++++++++OOOO",
"oooo++++++++++++++++OOOOOOOO    @@@@++++OOOO++++++++++++++++OOOO",
"oooo++++++++++++++++OOOOOOOO    @@@@++++OOOO++++++++++++++++OOOO",
"oooo++++++++++++++++OOOOOOOO    @@@@++++OOOO++++++++++++++++OOOO",
"++++OOOOOOOO++++OOOOOOOOoooo    @@@@OOOOoooo++++oooo++++OOOOOOOO",
"++++OOOOOOOO++++OOOOOOOOoooo    @@@@OOOOoooo++++oooo++++OOOOOOOO",
"++++OOOOOOOO++++OOOOOOOOoooo    @@@@OOOOoooo++++oooo++++OOOOOOOO",
"++++OOOOOOOO++++OOOOOOOOoooo    @@@@OOOOoooo++++oooo++++OOOOOOOO",
"OOOO++++++++OOOOOOOOooooXXXX    @@@@ooooOOOOooooOOOOOOOOOOOO++++",
"OOOO++++++++OOOOOOOOooooXXXX    @@@@ooooOOOOooooOOOOOOOOOOOO++++",
"OOOO++++++++OOOOOOOOooooXXXX    @@@@ooooOOOOooooOOOOOOOOOOOO++++",
"OOOO++++++++OOOOOOOOooooXXXX    @@@@ooooOOOOooooOOOOOOOOOOOO++++",
"OOOOOOOOOOOOOOOOooooOOOOoooo    ++++ooooooooOOOO++++OOOOoooooooo",
"OOOOOOOOOOOOOOOOooooOOOOoooo    ++++ooooooooOOOO++++OOOOoooooooo",
"OOOOOOOOOOOOOOOOooooOOOOoooo    ++++ooooooooOOOO++++OOOOoooooooo",
"OOOOOOOOOOOOOOOOooooOOOOoooo    ++++ooooooooOOOO++++OOOOoooooooo",
"ooooooooXXXXooooXXXXXXXXoooo    ++++OOOOOOOOooooooooOOOOOOOOoooo",
"ooooooooXXXXooooXXXXXXXXoooo    ++++OOOOOOOOooooooooOOOOOOOOoooo",
"ooooooooXXXXooooXXXXXXXXoooo    ++++OOOOOOOOooooooooOOOOOOOOoooo",
"ooooooooXXXXooooXXXXXXXXoooo    ++++OOOOOOOOooooooooOOOOOOOOoooo",
"XXXXXXXXXXXXXXXXXXXXXXXXXXXX    XXXXXXXXXXXXXXXXXXXXXXXXXXXXXXXX",
"XXXXXXXXXXXXXXXXXXXXXXXXXXXX    XXXXXXXXXXXXXXXXXXXXXXXXXXXXXXXX",
"XXXXXXXXXXXXXXXXXXXXXXXXXXXX    XXXXXXXXXXXXXXXXXXXXXXXXXXXXXXXX",
"XXXXXXXXXXXXXXXXXXXXXXXXXXXX    XXXXXXXXXXXXXXXXXXXXXXXXXXXXXXXX",
"........................                ........................",
"........................                ........................",
"........................                ........................",
"........................                ........................"
};
