/* XPM */
static char *result[] = {
/* columns rows colors chars-per-pixel */
"64 64 211 2 ",
"   c #34110F",
".  c #351210",
"X  c #3C1714",
"o  c #3F1916",
"O  c #2D221E",
"+  c #2D2624",
"@  c #2F2926",
"#  c #312623",
"$  c #312A26",
"%  c #382926",
"&  c #352E2B",
"*  c #3A2D2B",
"=  c #37302D",
"-  c #39312D",
";  c #3A3532",
":  c #3A3733",
">  c #3E3A3A",
",  c #431C19",
"<  c #48201C",
"1  c #552411",
"2  c #592618",
"3  c #662C16",
"4  c #682E17",
"5  c #662B1C",
"6  c #692F19",
"7  c #67331D",
"8  c #6B311B",
"9  c #70361F",
"0  c #542822",
"q  c #413231",
"w  c #453A37",
"e  c #493D32",
"r  c #433D3C",
"t  c #4C3A3A",
"y  c #553E3C",
"u  c #6D2425",
"i  c #602C21",
"p  c #6B2D20",
"a  c #712929",
"s  c #653425",
"d  c #6C3223",
"f  c #6E3428",
"g  c #713720",
"h  c #763C25",
"j  c #793F27",
"k  c #713629",
"l  c #743A2D",
"z  c #753E35",
"x  c #7C3933",
"c  c #4D4137",
"v  c #47423E",
"b  c #5B403E",
"n  c #74402A",
"m  c #7B4129",
"M  c #7C453A",
"N  c #7B453C",
"B  c #77483E",
"V  c #4B4643",
"C  c #574444",
"Z  c #5C4443",
"A  c #544C44",
"S  c #584E4C",
"D  c #585249",
"F  c #534F50",
"G  c #555152",
"H  c #634E4E",
"J  c #7D4843",
"K  c #60574B",
"L  c #645C4C",
"P  c #625050",
"I  c #645E54",
"U  c #696354",
"Y  c #716756",
"T  c #776565",
"R  c #7E7071",
"E  c #86383B",
"W  c #80472E",
"Q  c #82482F",
"!  c #814237",
"~  c #844A31",
"^  c #894937",
"/  c #824338",
"(  c #8E4A3E",
")  c #904A3E",
"_  c #8B533A",
"`  c #8C533A",
"'  c #8A3C40",
"]  c #8D4142",
"[  c #834D42",
"{  c #894F42",
"}  c #864F49",
"|  c #914747",
" . c #944E42",
".. c #8C5246",
"X. c #885449",
"o. c #8B5449",
"O. c #985547",
"+. c #92564A",
"@. c #93594C",
"#. c #9D594D",
"$. c #8C5450",
"%. c #945C51",
"&. c #9A5F52",
"*. c #A35F53",
"=. c #96644A",
"-. c #9D6255",
";. c #9E6855",
":. c #87785A",
">. c #9E755B",
",. c #A16457",
"<. c #A16659",
"1. c #AB655A",
"2. c #A4695C",
"3. c #AB6A5E",
"4. c #A47359",
"5. c #A8775B",
"6. c #B47B5E",
"7. c #82706F",
"8. c #867979",
"9. c #8A7B7B",
"0. c #A36C60",
"q. c #B36E62",
"w. c #A87764",
"e. c #B67967",
"r. c #BB7B6E",
"t. c #B67D71",
"y. c #BD7F71",
"u. c #98865F",
"i. c #9E8B61",
"p. c #A18F67",
"a. c #BB8366",
"s. c #B7866B",
"d. c #BF8769",
"f. c #A59467",
"g. c #A7966B",
"h. c #A8986F",
"j. c #BE8073",
"k. c #BD8C71",
"l. c #A69673",
"z. c #AE9F76",
"x. c #B8A875",
"c. c #B2A37C",
"v. c #BAAB7A",
"b. c #C38C6E",
"n. c #C48476",
"m. c #C58E70",
"M. c #C58678",
"N. c #C6887B",
"B. c #CB8B7D",
"V. c #C59276",
"C. c #C99375",
"Z. c #C79578",
"A. c #CA9678",
"S. c #CE9C7F",
"D. c #C8B77A",
"F. c #C9B97F",
"G. c #978787",
"H. c #97898A",
"J. c #A18D8D",
"K. c #B59B86",
"L. c #A19091",
"P. c #A99899",
"I. c #B4A785",
"U. c #B5A986",
"Y. c #BBAE82",
"T. c #B7A68D",
"R. c #BBA28D",
"E. c #BFB186",
"W. c #BEB288",
"Q. c #B3A2A3",
"!. c #CE8F81",
"~. c #D08E85",
"^. c #CE9184",
"/. c #CF9D80",
"(. c #D29284",
"). c #D69688",
"_. c #D7988C",
"`. c #D99A8C",
"'. c #DC9D92",
"]. c #C2A38C",
"[. c #D4A88C",
"{. c #C9BA84",
"}. c #C5AD97",
"|. c #DFA194",
" X c #CEB29B",
".X c #DDB69B",
"XX c #E0A296",
"oX c #E2A699",
"OX c #E5AA9D",
"+X c #E9AB9F",
"@X c #D2BAA3",
"#X c #DEBDA3",
"$X c #E7ADA0",
"%X c #EAADA1",
"&X c #EDB2A5",
"*X c #F0B4A7",
"=X c #F1B7AA",
"-X c #F5BBAE",
";X c #D7C185",
":X c #D7C389",
">X c #D8C38B",
",X c #D7CB8D",
"<X c #D5C392",
"1X c #D5CB94",
"2X c #D8CD95",
"3X c #D3CBA0",
"4X c #E7C5AA",
"5X c #E6C5AB",
"6X c #EBCDB3",
"7X c #EFD4BA",
"8X c #F0D5BB",
/* pixels */
";X;X;X;XD.D.D.D.;X;X;X;X,X,X,X,X,X,X,X,X,X,X,X,X,X,X,X,X,X,X,X,X;X;X;X;X,X,X,X,X,X,X,X,X,X,X,X,X,X,X,X,X,X,X,X,X;X;X;X;Xx.z.z.z.",
";X;X;X;XD.D.D.D.;X;X;X;X,X,X,X,X,X,X,X,X,X,X,X,X,X,X,X,X,X,X,X,X;X;X;X;X,X,X,X,X,X,X,X,X,X,X,X,X,X,X,X,X,X,X,X,X;X;X;X;Xz.z.z.z.",
";X;X;X;XD.D.D.D.;X;X;X;X,X,X,X,X,X,X,X,X,X,X,X,X,X,X,X,X,X,X,X,X;X;X;X;X,X,X,X,X,X,X,X,X,X,X,X,X,X,X,X,X,X,X,X,X;X;X;X;Xz.z.z.z.",
";X;X;X;XD.D.D.D.;X;X;X;X,X,X,X,X,X,X,X,X,X,X,X,X,X,X,X,X,X,X,X,X;X;X;X;X,X,X,X,X,X,X,X,X,X,X,X,X,X,X,X,X,X,X,X,X;X;X;X;Xz.z.z.z.",
";X;X;X;X;X;X;X;XD.D.D.D.D.D.D.D.z.z.z.z.x.x.x.x.D.D.D.D.;X;X;X;X;X;X;X;X;X;X;X;XD.D.D.D.D.D.D.D.{.>X;X;X;X;X;X;Xx.x.x.x.x.x.x.x.",
";X;X;X;X;X;X;X;XD.D.D.D.D.D.D.D.z.z.z.z.x.x.x.x.D.D.D.D.;X;X;X;X;X;X;X;X;X;X;X;XD.D.D.D.D.D.D.D.>X;X;X;X;X;X;X;Xx.x.x.x.x.x.x.x.",
";X;X;X;X;X;X;X;XD.D.D.D.D.D.D.D.z.z.z.z.x.x.x.x.D.D.D.D.;X;X;X;X;X;X;X>X:X;X;X;XD.D.D.D.D.D.D.D.;X;X;X;X;X;X;X;Xx.x.x.x.x.x.x.x.",
";X;X;X;X;X;X;X;XD.D.D.D.D.D.D.D.z.z.z.z.x.x.x.x.D.D.D.D.;X;X;X:X>X>X<XU : U <X:XD.D.D.D.D.D.D.D.;X;X;X;X;X;X;X;Xx.x.x.x.x.x.x.x.",
"D.D.D.D.;X;X;X;X;X;X;X;X;X;X;X;XD.D.D.D.;X;X;X;XD.D.D.F.x.Y.I : > : v }..XT.V : D W.x.x.D.D.D.D.D.D.D.D.;X;X;X;X{.{.;X;Xx.z.z.z.",
"D.D.D.D.;X;X;X;X;X;X;X;X;X;X;X;XD.D.D.D.;X;X;X;XD.D.D.{.L e w. X@X@X@X6X4X[. X XR.c ; U {.D.D.D.D.D.D.D.;X;X;X;X;X;X;X;Xz.z.z.z.",
"D.D.D.D.;X;X;X;X;X;X;X;X;X;X;X;XD.D.D.D.;X;X;X;XD.{.L c w.s./.6X8X8X6X[.S..XA.A.C.s.R.R.v U {.D.D.D.D.D.;X;X;X;X;X;X;X;Xz.z.z.z.",
"D.D.D.D.;X;X;X;X;X;X;X;X;X;X;X;XD.D.D.D.;X;X;X;X{.U >.s.5X6X6X7X7X7X4XC.m.b.=.d.b.d.=.s.w.K.Y {.D.D.D.D.;X;X;X{.;X;X;X;Xz.z.z.z.",
"z.z.z.z.f.f.f.f.f.f.f.f.z.z.z.z.z.z.z.z.f.f.g.K c w.Z.5X7X7X7X6X5X.Xm.d.m.b.d.b.b.d.` Q ` b.R.U k.i.i.i.i.i.i.i.f.f.f.f.i.i.i.i.",
"z.z.z.z.f.f.f.f.f.f.f.f.z.z.z.z.z.z.z.z.f.f.L >.s..XA.A.5X6X5XZ..._ Q _ a.d.d.b.C.b.6.` W ` #X}.U l.i.i.i.i.i.i.f.f.f.f.i.i.i.i.",
"z.z.z.z.f.f.f.f.f.f.f.f.z.z.z.z.z.z.z.z.f.h.c 5.C.C.m.d.b.b.b.6.m m n m m Q ~ a.a.a.a.5.Q ~ b.5X}.I z.i.i.i.i.i.f.f.f.f.i.i.i.i.",
"z.z.z.z.f.f.f.f.f.f.f.f.z.z.z.z.z.z.z.x.g.L 7 _ 6.a.6.n 8 9 9 8 8 4 4 4 4 4 6 9 9 9 9 9 j j _ b.5X}.v A i.i.i.i.f.f.f.f.i.i.i.i.",
";X;X;X;X,X,X,X,Xx.x.x.x.,X,X,X,X,X,X,X,XY >.Q n g g g d d d k k k k k k k k d p d p d p 6 j m ) V.5XR.v {.D.D.D.x.x.x.x.;X;X;X;X",
";X;X;X;X,X,X,X,Xx.x.x.x.,X,X,X,X,X,X,X1Xe n m 6 6 d l r.n.B.oXOXOXoXoXoXoXoXB.n.N.n.M.r.j 6 h Q e.b.Z.K.U D.D.D.x.x.x.x.;X;X;X;X",
";X;X;X;X,X,X,X,Xx.x.x.x.,X,X,X,X,X,X,XL s h 6 j r.M.M.(.(.`.-X-X4X-X`.`.*X*X).(.(.(.(.(.r.p 6 j Q ~ _ 5.c {.D.D.x.x.x.x.;X;X;X;X",
";X;X;X;X,X,X,X,Xx.x.x.x.,X,X,X,X,X,X,Xe 7 6 d r.(.(.(.(.`.&X-X-X-X=X`.`.*X`.(.(.B.B.(.(.M.d 4 j m m m ` K.U D.D.x.x.x.x.;X;X;X;X",
"D.D.D.D.;X;X;X;X;X;X;X;XD.D.D.D.x.x.v.c 7 8 l N.(.B.).*X=X-X-X-X-X-X=X=X=X).(.M.,.,.N.!.n.d 4 j m m m _ R.- :X;X;X;X;X;XD.D.D.D.",
"D.D.D.D.;X;X;X;X;X;X;X;XD.D.D.D.x.x.L =.9 d r.(.(.(.).*X-X-X-X-X-X-X-X-X&X).B.,.@.@.,.B.M.l 6 j m m m _ 5.- ;X;X;X;X;X;XD.D.D.D.",
"D.D.D.D.;X;X;X;X;X;X;X;XD.D.D.D.x.v.- n 6 d n.(.(.(.(.'.=X-X-X-X-X-X-X=X`.(.B.<.@.+.&.B.(.r.d 6 m m m ~ 4.& :X;X;X;X;X;XD.D.D.D.",
"D.D.D.D.;X;X;X;X;X;X;X;XD.D.D.D.x.v.- 7 6 d n.(.(.(.`.*X-X-X-X-X-X-X-X=X`.).(.M.<.@.&.B.(.n.d 4 m m n ~ 4.& ;X;X;X;X;X;XD.D.D.D.",
"x.x.x.x.x.x.x.x.D.D.D.D.;X;X;X;XD.F.- 7 4 l M.(.(.(.&X-X-X-X-X-X-X-X-X-X=X=X&X).M.,.,.B.(.n.d 4 m m m ~ >.= v.x.x.x.x.x.x.x.x.x.",
"x.x.x.x.x.x.x.x.D.D.D.D.;X;X;X;XD.F.& 1 d r.(.(.(.`.=X-X-X-X-X-X-X-X-X-X-X-X=X).!.B.B.(.(.n.d 3 m m m ~ 4.; v.x.x.x.x.c.x.x.x.x.",
"x.x.x.x.x.x.x.x.D.D.D.D.;X;X;X;XD.F.$ 1 d N.(.).`.&X-X-X-X-X-X-X-X-X-X-X-X-X=X).(.(.(.(.(.n.d 4 n m m ~ 4.& v.x.x.x.x.x.x.x.x.x.",
"x.x.x.x.x.x.x.x.D.D.D.D.;X;X;X;XD.F.# 1 d n.`.&X=X-X-X=X=X*X=X-X-X-X-X-X=X=X=X).(.(.!.(.(.n.d 4 m m m Q 4.& Y.x.x.x.x.x.x.x.x.x.",
"i.i.i.i.i.i.i.i.f.f.f.f.f.f.f.f.z.v.+ 1 d A.*X-X-X=X$X(.!.!.(.&X*X*X*X&X).(.oX!.!.!.).).(.n.d 4 m m m ~ =.= U.z.f.f.f.f.i.i.i.i.",
"i.i.i.i.i.i.i.i.f.f.f.f.f.f.f.f.z.c.V 1 f oX-X*X+X!.<.&.&.&.<.^._.).^.B.,.&.&.,.n.B.XXoX(.n.k 4 9 m m m n + I.z.f.f.f.f.i.i.i.i.",
"i.i.i.i.i.i.i.i.f.f.f.f.f.f.f.f.z.z.U.O s oX+XN.o.N z z M +.&.B.(.B.<.&.+.N z z N } ..@.B.B.@.5 4 m m W n @ I.z.f.f.f.f.i.i.i.i.",
"i.i.i.i.i.i.i.i.f.f.f.f.f.f.f.f.z.z.U.O 0 y.@.N , X X , z o.-.B.&X(.&.+.[ , X X , J z [ n.(.n.8 4 m m Q =.$ U.z.f.f.f.f.i.i.i.i.",
";X;X;X;X,X,X,X,X,X,X,X,X;X;X;X;XD.D.A 1 5 @.o.,   .   . , [ &.(.*X|.-..., . . . . o < B <.n.d.f 3 h m m 6 # 3X,X{.>X;X;XD.x.x.x.",
";X;X;X;X,X,X,X,X,X,X,X,X;X;X;X;XD.{.# 1 k @...< o o o o o 0 @.XX$X|.#...< .       o o 0 ..-.-...p 6 j j 3 < w 1X;X;X;X;Xx.x.x.x.",
";X;X;X;X,X,X,X,X,X,X,X,X;X;X;X;XD.D.# s y.N.-.o.} } } $.%.o.1.oX%X|.#.+.J < o o < J } ..@.+.@.r.p 3 h 6 p l + 2X;X;X;X;Xx.x.x.x.",
";X;X;X;X,X,X,X,X,X,X,X,X;X;X;X;XD.{.& @.OX`.^.N.0.-.0.!.OX!.B.oX%XXX#.O.@.@.@.@.%.@.-.-.-.@.<.j.d 3 3 5 ( / # 2X;X;X;X;Xx.x.x.x.",
";X;X;X;XD.D.D.D.;X;X;X;X;X;X;X;X;X>X& -.&X=X=X=X%X&X&X*X=X).).+X+X|.#. .-.n.(.$X+X(.B.(.n.3.M.n.d 3 3 p ( E @ W.x.x.x.x.l.z.z.z.",
";X;X;X;XD.D.D.D.;X;X;X;X;X;X;X;X;X>X$ -.$X-X-X-X-X-X-X-X=X).(.oX+XXX#. .@.^.*X-X-X=X=X*X(.B.(.M.d 3 5 /  .! @ W.x.x.x.x.z.z.z.z.",
";X;X;X;XD.D.D.D.;X;X;X;X;X;X;X;X{.<X* &.).=X-X-X-X-X-X-X=X).).OX+XXX#.) &.^.=X-X-X-X-X*X).(.(.M.d 3 5 (  .! # E.x.x.x.x.z.z.z.z.",
";X;X;X;XD.D.D.D.;X;X;X;X;X;X;X{.>XK } q.!.*X-X-X-X-X-X-X&X(.oX+X+XXX#. .#.B.=X-X-X-X-X*X).(.(.M.k 3 p (  .! @ E.x.x.x.x.z.z.z.z.",
",X,X,X,X;X;X;X;XD.D.D.D.D.D.D.D.D.& #.1.q.).=X-X-X-X-X*XB.3.`.+X+XXX#.)  .2.$X-X-X-X&X`.(.(.B.M...a ^  .) M $ v.{.;X;X;XD.x.x.x.",
",X,X,X,X;X;X;X;XD.D.D.D.D.D.D.D.x.S ..*.q.M.&X=X-X-X&X(.2.O.*.).XX).#.)  .#.^.=X=X&X`.(.(.(.M.,.@.(  . .) M v x.;X;X;X;Xx.x.x.x.",
",X,X,X,X;X;X;X;XD.D.D.D.D.D.D.D.x.E.* @.1.2.!._.&X=X`.).N.*. .#.#.#. . . .&.B.(.).(.(.^.(.M.<.@.@. . . .^ % ].x.;X;X;X;Xx.x.x.x.",
",X,X,X,X;X;X;X;XD.D.D.D.D.D.D.D.x.x.S } @.o.n.~.`.+X|.&X=XXX*. .)  .O.O.+.-.N.(.(.(.(.(.M.-.@.@.@.) / ! z v x.x.;X;X;X;Xx.x.x.x.",
"i.i.i.i.i.i.i.i.f.f.f.f.z.z.z.z.z.z.I.D # * X.!.(.).%X=X&X`.n.&.+.#.@.@.@.@.<.B.(.(.(.B.,.+.@.@.( 0 % # e l.i.i.i.i.i.i.i.i.i.i.",
"i.i.i.i.i.i.i.i.f.f.f.f.c.z.z.z.z.z.z.z.f.g.* t.(.(.).).(.(.B.,.<.n.&.+.@.@.&.n.(.B.(.B.&.@.@...2 + I.h.i.i.i.i.i.i.i.i.i.i.i.i.",
"i.i.i.i.i.i.i.i.f.f.f.f.z.z.z.z.z.z.z.z.f.g.@ $.B.(.~.n.1.n.N.n.M.).%...@.@.@.<.A.(.(.M.&.@.@...0 + f.f.i.i.i.i.i.i.i.i.i.i.i.i.",
"i.i.i.i.i.i.i.i.f.f.f.f.z.z.z.z.z.z.z.z.f.f.@ } N.(.M.,.@.@.] ' E a u x { | @.&.M.(.B.,.@.@. .z <.& f.f.i.i.i.i.i.i.i.i.i.i.i.i.",
",X,X,X,Xx.x.x.x.;X;X;X;X,X,X,X,X,X,X,X,X;X;XA B ,.n.<.@.&.| ] ' a a E u u a ..%.<.B.B.-.@.@...k w.; >X1X;X;X;X;X,X,X,X,X,X,X,X,X",
",X,X,X,Xx.x.x.x.;X;X;X;X,X,X,X,X,X,X,X,X;X;X<X% ..n.&.<._.'.'.'.'._.!.1.*.*.@.@.<.B.(.n.&.+.{ M w.* ,X,X;X;X;X;X,X,X,X,X,X,X,X,X",
",X,X,X,Xx.x.x.x.;X;X;X;X,X,X,X,X,X,X,X,X;X;X;XD J @.-.n.).&XOXoX'.'.q.1.&.n.,.-.M.(.(.n.&. .l r.t.* ,X,X;X;X;X;X,X,X,X,X,X,X,X,X",
",X,X,X,Xx.x.x.x.;X;X;X;X,X,X,X,X,X,X,X,X;X;X;X<X* [ &.N.(.).!.<.-.-.@.@.&.n.N.n.(.(.N.-.@...l N.t.* ,X,X;X;X{.>X,X,X,X,X,X,X,X,X",
"D.D.D.D.D.D.D.D.;X;X;X;X;X;X;X;Xx.x.x.x.x.x.x.x.+ J @.<.B.(.B.&.$.@.@.@.@.&.-.;.B.B.<.@...f ..N.j.r {.>XF.D.D.D.D.D.D.D.D.D.D.D.",
"D.D.D.D.D.D.D.D.;X;X;X;X;X;X;X;Xx.x.x.x.x.x.x.x.A B @.<.B.).~.<.%.@.+.@.@.@.@.&.n.n.-.@.{ f ..<.N.w.G {.D.D.D.D.D.D.D.D.D.D.D.D.",
"D.D.D.D.D.D.D.D.;X;X;X;X;X;X;X;Xx.x.x.x.x.x.x.x.{.& [ j.(.&X&XA.2.;.-.-.&.&.@.@.-.-.@.( l { @.&.n.0.7.V D.D.D.D.D.D.D.D.D.D.D.D.",
"D.D.D.D.D.D.D.D.;X;X;X;X;X;X;X;Xx.x.x.x.x.x.x.x.D.+ 2 -.(.*X-X=X&X%X$X(.A.n.-.@.o.@.{ k { @.@.-.n.%.C = D.D.D.D.D.D.D.D.D.D.D.D.",
"D.D.D.D.x.x.x.x.x.x.x.x.D.D.D.D.;X;X;X;XD.D.D.D.x.+ i ..M.(.&X*X=X=X-X&X%X!.&.@.@.{ l { @.@.@.&.y.%.Z 7.F x.x.x.D.x.x.x.x.x.x.x.",
"D.D.D.D.x.x.x.x.x.x.x.x.D.D.D.D.;X;X;X;XD.D.D.D.x.w 0.N ..<.N.(.!.).$X(.!.N.&.+.{ l { @.@.@.@.@.%.o.b S R F x.x.x.x.x.x.x.x.x.x.",
"D.D.D.D.x.x.D.x.x.x.x.x.D.D.D.D.;X;X;X;XD.D.D.D.A G.^.y./ ..@.&.&.-.N.<.&.&...{ k { @.@.@.@.@.@.@.o.Z t P 9.G x.x.x.x.x.x.x.x.x.",
"D.D.D.D.x.x.x.x.x.x.x.x.D.D.D.D.;X;X;X{.D.D.D.v w J.^.(.y.m f { o...+.....{ f k ..@.@.@.@.@.@.@.@.@.} y C H.9.> >.x.x.x.x.x.x.x.",
"u.i.u.i.f.f.f.f.f.f.f.f.i.i.i.i.i.i.i.i.f.f.l.+ q H M.(.(.n.+.f p d p d p f { ..@.@.@.@.@.@.@.@.@.@.o.y t C P G.G.> :.i.i.i.i.i.",
"i.i.i.i.f.f.f.f.f.f.f.f.i.i.i.i.i.i.i.i.f.h.v q t Z N.(.!.(.n.@.o...........@.@.@.@.@.@.@.@.@.@.%.@.o.y y t C L.Q.L.9.r :.u.i.i.",
"i.i.i.i.f.f.f.f.f.f.f.f.i.i.i.i.i.i.i.i.h.A q t t Z M.(.(.(.!.;.@.@.@.@.@.@.@.@.@.@.@.@.@.@.@.@.@.@.o.y t t t P L.P.T 9.G.> u.i.",
"i.i.i.i.f.f.f.f.f.f.f.f.i.i.i.i.i.i.p.F r 8.C t t Z j.~.(.~.~.M.&.@.@.@.@.@.@.@.@.@.@.@.@.@.@.@.@.@.o.y t t t t S P.H.T P.L.H.G."
};
