/* XPM */
static char *result[] = {
/* columns rows colors chars-per-pixel */
"64 64 7 1 ",
"  c #91815A",
". c #998A60",
"X c #A2956E",
"o c #AD9F6E",
"O c #BEAF74",
"+ c #CEBA7F",
"@ c #D0C487",
/* pixels */
"++++OOOO++++@@@@@@@@@@@@@@@@@@@@++++@@@@@@@@@@@@@@@@@@@@++++XXXX",
"++++OOOO++++@@@@@@@@@@@@@@@@@@@@++++@@@@@@@@@@@@@@@@@@@@++++XXXX",
"++++OOOO++++@@@@@@@@@@@@@@@@@@@@++++@@@@@@@@@@@@@@@@@@@@++++XXXX",
"++++OOOO++++@@@@@@@@@@@@@@@@@@@@++++@@@@@@@@@@@@@@@@@@@@++++XXXX",
"++++++++OOOOOOOOXXXXooooOOOO++++++++++++OOOOOOOO++++++++oooooooo",
"++++++++OOOOOOOOXXXXooooOOOO++++++++++++OOOOOOOO++++++++oooooooo",
"++++++++OOOOOOOOXXXXooooOOOO++++++++++++OOOOOOOO++++++++oooooooo",
"++++++++OOOOOOOOXXXXooooOOOO++++++++++++OOOOOOOO++++++++oooooooo",
"OOOO++++++++++++OOOO++++OOOOooooooooooooooooOOOOOOOO++++++++XXXX",
"OOOO++++++++++++OOOO++++OOOOooooooooooooooooOOOOOOOO++++++++XXXX",
"OOOO++++++++++++OOOO++++OOOOooooooooooooooooOOOOOOOO++++++++XXXX",
"OOOO++++++++++++OOOO++++OOOOooooooooooooooooOOOOOOOO++++++++XXXX",
"XXXX........XXXXXXXX....        ........    ....        ....    ",
"XXXX........XXXXXXXX....        ........    ....        ....    ",
"XXXX........XXXXXXXX....        ........    ....        ....    ",
"XXXX........XXXXXXXX....        ........    ....        ....    ",
"++++@@@@oooo@@@@@@@@@@@@@@@@oooo@@@@@@@@@@@@++++OOOOOOOOoooo++++",
"++++@@@@oooo@@@@@@@@@@@@@@@@oooo@@@@@@@@@@@@++++OOOOOOOOoooo++++",
"++++@@@@oooo@@@@@@@@@@@@@@@@oooo@@@@@@@@@@@@++++OOOOOOOOoooo++++",
"++++@@@@oooo@@@@@@@@@@@@@@@@oooo@@@@@@@@@@@@++++OOOOOOOOoooo++++",
"OOOO++++++++OOOOooooOOOOooooXXXXooooOOOOOOOO++++++++++++++++OOOO",
"OOOO++++++++OOOOooooOOOOooooXXXXooooOOOOOOOO++++++++++++++++OOOO",
"OOOO++++++++OOOOooooOOOOooooXXXXooooOOOOOOOO++++++++++++++++OOOO",
"OOOO++++++++OOOOooooOOOOooooXXXXooooOOOOOOOO++++++++++++++++OOOO",
"ooooooooOOOO++++OOOOOOOOOOOOXXXX++++++++++++OOOOOOOOoooooooooooo",
"ooooooooOOOO++++OOOOOOOOOOOOXXXX++++++++++++OOOOOOOOoooooooooooo",
"ooooooooOOOO++++OOOOOOOOOOOOXXXX++++++++++++OOOOOOOOoooooooooooo",
"ooooooooOOOO++++OOOOOOOOOOOOXXXX++++++++++++OOOOOOOOoooooooooooo",
"        ........XXXX....                ............XXXX....    ",
"        ........XXXX....                ............XXXX....    ",
"        ........XXXX....                ............XXXX....    ",
"        ........XXXX....                ............XXXX....    ",
"++++@@@@@@@@++++OOOOOOOO@@@@@@@@@@@@@@@@@@@@@@@@@@@@@@@@++++oooo",
"++++@@@@@@@@++++OOOOOOOO@@@@@@@@@@@@@@@@@@@@@@@@@@@@@@@@++++oooo",
"++++@@@@@@@@++++OOOOOOOO@@@@@@@@@@@@@@@@@@@@@@@@@@@@@@@@++++oooo",
"++++@@@@@@@@++++OOOOOOOO@@@@@@@@@@@@@@@@@@@@@@@@@@@@@@@@++++oooo",
"++++OOOO++++++++++++++++OOOOooooooooooooOOOOooooOOOOooooooooXXXX",
"++++OOOO++++++++++++++++OOOOooooooooooooOOOOooooOOOOooooooooXXXX",
"++++OOOO++++++++++++++++OOOOooooooooooooOOOOooooOOOOooooooooXXXX",
"++++OOOO++++++++++++++++OOOOooooooooooooOOOOooooOOOOooooooooXXXX",
"@@@@++++OOOOOOOOooooooooooooooooOOOOOOOOOOOOOOOOoooooooo++++oooo",
"@@@@++++OOOOOOOOooooooooooooooooOOOOOOOOOOOOOOOOoooooooo++++oooo",
"@@@@++++OOOOOOOOooooooooooooooooOOOOOOOOOOOOOOOOoooooooo++++oooo",
"@@@@++++OOOOOOOOooooooooooooooooOOOOOOOOOOOOOOOOoooooooo++++oooo",
"        ....XXXXXXXX....            ....XXXX........            ",
"        ....XXXXXXXX....            ....XXXX........            ",
"        ....XXXXXXXX....            ....XXXX........            ",
"        ....XXXXXXXX....            ....XXXX........            ",
"@@@@oooo++++@@@@@@@@++++++++oooo@@@@@@@@@@@@oooo@@@@++++@@@@@@@@",
"@@@@oooo++++@@@@@@@@++++++++oooo@@@@@@@@@@@@oooo@@@@++++@@@@@@@@",
"@@@@oooo++++@@@@@@@@++++++++oooo@@@@@@@@@@@@oooo@@@@++++@@@@@@@@",
"@@@@oooo++++@@@@@@@@++++++++oooo@@@@@@@@@@@@oooo@@@@++++@@@@@@@@",
"OOOOOOOO++++++++ooooooooOOOOoooooooo++++++++OOOO++++OOOOOOOOOOOO",
"OOOOOOOO++++++++ooooooooOOOOoooooooo++++++++OOOO++++OOOOOOOOOOOO",
"OOOOOOOO++++++++ooooooooOOOOoooooooo++++++++OOOO++++OOOOOOOOOOOO",
"OOOOOOOO++++++++ooooooooOOOOoooooooo++++++++OOOO++++OOOOOOOOOOOO",
"OOOOooooooooOOOO++++OOOOooooXXXX++++++++OOOOoooooooooooooooooooo",
"OOOOooooooooOOOO++++OOOOooooXXXX++++++++OOOOoooooooooooooooooooo",
"OOOOooooooooOOOO++++OOOOooooXXXX++++++++OOOOoooooooooooooooooooo",
"OOOOooooooooOOOO++++OOOOooooXXXX++++++++OOOOoooooooooooooooooooo",
"    ........        ....XXXXXXXXXXXX....    ....                ",
"    ........        ....XXXXXXXXXXXX....    ....                ",
"    ........        ....XXXXXXXXXXXX....    ....                ",
"    ........        ....XXXXXXXXXXXX....    ....                "
};
